<?xml version="1.0" encoding="utf-8"?>
<!-- Generator: Adobe Illustrator 27.7.0, SVG Export Plug-In . SVG Version: 6.00 Build 0)  -->
<svg version="1.1" id="Layer_1" xmlns="http://www.w3.org/2000/svg" xmlns:xlink="http://www.w3.org/1999/xlink" x="0px" y="0px"
	 viewBox="0 0 449.2 139" style="enable-background:new 0 0 449.2 139;" xml:space="preserve">
<style type="text/css">
	.st0{fill:#CFB789;}
	.st1{fill:#E4D7BD;}
</style>
<rect x="98.9" y="73.7" class="st0" width="350.3" height="1.6"/>
<g>
	<path class="st0" d="M118.3,65.8c-0.3,0.2-0.6,0.4-0.9,0.5c-0.2,0.1-0.4,0.2-0.6,0.3c-0.3,0.2-0.8,0.3-1.2,0.4
		c-0.5,0.1-1,0.2-1.5,0.3c-0.5,0.1-1,0.2-1.6,0.2c-0.5,0.1-1,0.1-1.5,0.1c-1.8,0-3.4-0.3-4.9-1c-1.5-0.7-2.8-1.6-3.8-2.9
		c-1.1-1.2-1.9-2.7-2.5-4.3c-0.6-1.7-0.9-3.5-0.9-5.5c0-2,0.3-3.8,1-5.5c0.6-1.7,1.5-3.1,2.7-4.3c1.1-1.2,2.5-2.1,4.2-2.7
		c1.6-0.7,3.4-1,5.4-1c0.5,0,1,0,1.4,0c0.4,0,0.8,0.1,1.2,0.2c0.4,0.1,0.8,0.2,1.3,0.3c0.4,0.2,0.9,0.3,1.5,0.6l0.1,3.4l-0.3,0.1
		c-0.8-1-1.7-1.7-2.6-2.1c-0.9-0.4-2-0.6-3.1-0.6c-2.2,0-3.8,1-4.8,2.9c-1,1.9-1.6,4.9-1.6,8.9c0,4,0.6,6.9,1.8,8.8
		c1.2,1.9,3.1,2.8,5.6,2.8c0.4,0,0.8,0,1.1-0.1c0.4,0,0.7-0.1,1.1-0.2c0.4-0.1,0.8-0.3,1.2-0.4c0.4-0.2,1-0.4,1.5-0.7L118.3,65.8z"
		/>
	<path class="st0" d="M121.7,43.1l4.6-2.2h0.5v11.5c0.7-0.6,1.2-1.1,1.8-1.5c0.5-0.4,1-0.7,1.5-0.9c0.5-0.2,0.9-0.4,1.4-0.5
		c0.4-0.1,0.9-0.1,1.3-0.1c0.6,0,1.2,0.1,1.8,0.3c0.6,0.2,1.1,0.5,1.5,0.9s0.8,0.8,1,1.3c0.2,0.5,0.4,1,0.4,1.6v13.7h-5V54.3
		c0-0.2-0.1-0.4-0.2-0.7c-0.3-0.6-0.6-0.9-0.9-1.1s-0.6-0.3-1-0.3c-0.6,0-1.1,0.1-1.6,0.4c-1.4,0.6-2,1.3-2,2.2v12.3h-5V43.1z"/>
	<path class="st0" d="M142.2,50.5c0.6-0.3,1.2-0.5,1.7-0.6c0.5-0.2,0.9-0.3,1.4-0.4c0.4-0.1,0.9-0.1,1.3-0.2c0.4,0,1,0,1.5,0
		c3,0,5.1,0.6,6.3,1.9c0.4,0.4,0.7,0.9,0.9,1.5c0.2,0.6,0.3,1.5,0.3,2.6v7.8c0,0.7,0.1,1.4,0.2,2c0.1,0.7,0.3,1.3,0.6,1.9h-5.1
		l-0.6-1.5c-0.6,0.5-1.3,0.9-2.1,1.3c-0.8,0.4-1.8,0.6-2.8,0.6c-0.8,0-1.5-0.2-2.2-0.5c-0.7-0.3-1.3-0.7-1.8-1.2
		c-0.5-0.5-0.9-1.2-1.2-1.9c-0.3-0.7-0.4-1.5-0.4-2.3c0-0.9,0.2-1.7,0.5-2.4c0.3-0.7,0.8-1.3,1.3-1.8c0.6-0.5,1.3-0.9,2.1-1.2
		c0.8-0.3,1.7-0.4,2.7-0.4c1,0,1.7,0.2,2.3,0.5c0.6,0.3,1,0.6,1.4,0.9v-3.3c0-1.1-0.2-1.9-0.7-2.3c-0.5-0.4-1.3-0.6-2.4-0.6
		c-0.5,0-0.9,0-1.2,0.1c-0.4,0.1-0.7,0.2-1.1,0.4c-0.4,0.2-0.7,0.5-1.2,0.9c-0.4,0.4-0.9,0.8-1.5,1.4l-0.5,0.1L142.2,50.5z
		 M150.3,58.8c-0.3-0.3-0.7-0.5-1.1-0.7c-0.4-0.2-0.9-0.3-1.4-0.3c-0.8,0-1.4,0.3-1.8,1c-0.5,0.7-0.7,1.6-0.7,2.7
		c0,1.1,0.2,2.1,0.7,2.7c0.5,0.7,1.2,1,2,1c0.4,0,0.8-0.1,1.1-0.3c0.3-0.2,0.7-0.6,1.2-1.1V58.8z"/>
	<path class="st0" d="M159.6,51.2l4.7-2.2h0.3v3c0.5-0.5,1.1-1,1.5-1.4c0.5-0.4,1-0.7,1.5-0.9c0.5-0.2,1-0.4,1.5-0.5
		c0.5-0.1,1-0.2,1.6-0.2c0.7,0,1.3,0.1,1.9,0.3c0.6,0.2,1.1,0.5,1.6,0.9c0.5,0.4,0.8,0.9,1.1,1.4c0.3,0.6,0.4,1.2,0.4,1.9v13.6h-5.3
		V54.6c0-0.3,0-0.7-0.1-1s-0.2-0.6-0.4-0.9c-0.2-0.3-0.4-0.5-0.7-0.6c-0.3-0.2-0.6-0.2-1-0.2c-0.4,0-0.8,0.1-1.2,0.2
		c-0.4,0.2-0.7,0.3-1,0.6c-0.3,0.2-0.6,0.5-0.8,0.8c-0.2,0.3-0.5,0.5-0.6,0.8v13h-5V51.2z"/>
	<path class="st0" d="M190.7,65.4l-0.7,0.6c-0.4,0.3-0.7,0.6-1,0.8c-0.3,0.2-0.6,0.4-0.9,0.5c-0.3,0.1-0.6,0.2-0.9,0.3
		s-0.7,0.1-1.1,0.1c-1.1,0-2.1-0.2-3-0.7c-0.9-0.5-1.7-1.1-2.4-1.9s-1.2-1.8-1.6-2.9c-0.4-1.1-0.6-2.4-0.6-3.8
		c0-1.3,0.2-2.4,0.6-3.5c0.4-1.1,0.9-2,1.6-2.9c0.7-0.8,1.4-1.4,2.3-1.9c0.9-0.5,1.9-0.7,2.9-0.7c1,0,1.8,0.2,2.5,0.5
		c0.7,0.3,1.3,1,1.9,1.9v-8.5l4.9-2.2h0.3v26.2h-4.9V65.4z M190.2,54.2c0-0.3-0.1-0.7-0.3-1.1c-0.2-0.4-0.5-0.7-0.9-1
		c-0.5-0.4-1.1-0.6-1.6-0.6c-1,0-1.8,0.6-2.3,1.7c-0.5,1.1-0.7,3-0.7,5.5c0,4.3,1,6.4,2.9,6.4c0.6,0,1.2-0.1,1.6-0.4
		s0.9-0.9,1.3-1.7V54.2z"/>
	<path class="st0" d="M199.8,43.3l5-2.5h0.5v26.3h-5.5V43.3z"/>
	<path class="st0" d="M214.7,61.2c0.1,1.5,0.5,2.7,1.2,3.5c0.7,0.8,1.7,1.2,2.9,1.2c1.2,0,2.2-0.3,3-0.8c0.8-0.6,1.6-1.5,2.3-2.8
		l0.4,0l-0.2,3.6c-0.8,0.6-1.8,1-2.8,1.3c-1,0.3-2.3,0.4-3.8,0.4c-1.3,0-2.6-0.2-3.7-0.7c-1.1-0.5-2.1-1.1-2.9-2
		c-0.8-0.9-1.4-1.9-1.8-3.1c-0.4-1.2-0.6-2.5-0.6-4c0-1.2,0.2-2.3,0.6-3.3c0.4-1,1-1.9,1.8-2.7c0.8-0.8,1.6-1.4,2.7-1.8
		c1-0.4,2.1-0.6,3.3-0.6c2.2,0,3.8,0.5,5,1.5c1.2,1,1.9,2.7,2.3,4.9L214.7,61.2z M219.6,56.1c0-1.9-0.2-3.3-0.5-4.1
		c-0.3-0.8-1-1.2-1.9-1.2c-0.9,0-1.6,0.4-2,1.3c-0.5,0.9-0.7,2.1-0.7,3.8c0,0.3,0,0.7,0,1.2c0,0.5,0,1.1,0.1,1.7L219.6,56.1z"/>
	<path class="st0" d="M228.1,51.5l4.6-2.2h0.4V53c0.3-0.3,0.5-0.6,0.7-0.8c0.2-0.2,0.4-0.4,0.5-0.5c0.5-0.5,0.8-0.9,1.2-1.2
		c0.3-0.3,0.6-0.6,0.9-0.7c0.3-0.2,0.5-0.3,0.8-0.3c0.3-0.1,0.6-0.1,0.9-0.1c0.1,0,0.2,0,0.3,0c0.1,0,0.2,0,0.3,0v5.4
		c-0.9-1-1.8-1.6-2.9-1.6c-0.4,0-0.9,0.1-1.3,0.4c-0.2,0.2-0.5,0.3-0.8,0.6c-0.4,0.2-0.6,0.5-0.7,0.7v12.2h-5V51.5z"/>
	<path class="st0" d="M266.6,45.6l-0.4,0c-0.4-0.6-0.8-1.1-1.2-1.5c-0.4-0.4-0.8-0.7-1.3-1c-0.4-0.2-0.9-0.4-1.4-0.5
		c-0.5-0.1-1.1-0.2-1.7-0.2c-4.3,0-6.5,4.2-6.5,12.5c0,3.5,0.5,6.2,1.6,8.1c1,1.8,2.5,2.8,4.5,2.8c0.3,0,0.6,0,0.9,0
		c0.3,0,0.7-0.1,1-0.1V55.6H260c-0.2,0-0.3-0.1-0.3-0.2l0.2-1.5c0-0.1,0.1-0.2,0.3-0.2h7.3v9.9l0.7,0.9c-1,0.9-1.9,1.5-2.6,1.9
		c-0.7,0.4-1.5,0.7-2.4,0.9c-1,0.2-1.9,0.4-2.8,0.4c-1.7,0-3.3-0.3-4.8-1c-1.5-0.7-2.7-1.7-3.8-2.9c-1.1-1.2-1.9-2.7-2.5-4.3
		c-0.6-1.6-0.9-3.4-0.9-5.4c0-2,0.3-3.8,0.9-5.5c0.6-1.7,1.5-3.1,2.6-4.3c1.1-1.2,2.5-2.2,4-2.8c1.5-0.7,3.2-1,5.1-1
		c0.6,0,1.3,0.1,2.1,0.3c0.8,0.2,1.9,0.5,3.2,0.9L266.6,45.6z"/>
	<path class="st0" d="M278.8,67.5c-1.2,0-2.3-0.2-3.4-0.7c-1-0.4-1.9-1.1-2.6-1.9c-0.7-0.8-1.3-1.8-1.7-2.9
		c-0.4-1.1-0.6-2.3-0.6-3.7c0-1.3,0.2-2.5,0.6-3.6c0.4-1.1,1-2.1,1.7-2.9c0.7-0.8,1.6-1.5,2.6-2c1-0.5,2.1-0.7,3.2-0.7
		c1.1,0,2.2,0.2,3.2,0.7c1,0.5,1.9,1.1,2.6,2c0.7,0.8,1.3,1.8,1.7,3c0.4,1.1,0.6,2.4,0.6,3.7c0,1.3-0.2,2.5-0.6,3.6
		c-0.4,1.1-1,2-1.7,2.8s-1.5,1.4-2.5,1.9C281,67.3,279.9,67.5,278.8,67.5z M275.9,58.4c0,1.5,0,2.7,0.1,3.7c0.1,1,0.2,1.7,0.4,2.3
		c0.2,0.6,0.5,1,0.8,1.2c0.3,0.2,0.8,0.3,1.3,0.3c0.4,0,0.8-0.1,1.1-0.4c0.3-0.3,0.6-0.7,0.8-1.3c0.2-0.6,0.4-1.5,0.5-2.5
		c0.1-1.1,0.2-2.3,0.2-3.9c0-1.2-0.1-2.3-0.2-3.1c-0.1-0.9-0.3-1.6-0.6-2.1c-0.2-0.6-0.5-1-0.8-1.2c-0.3-0.2-0.6-0.4-0.9-0.4
		c-0.7,0-1.2,0.3-1.6,0.9c-0.4,0.6-0.6,1.3-0.8,2.1c-0.2,0.8-0.3,1.6-0.3,2.5C276,57.2,275.9,57.9,275.9,58.4z"/>
	<path class="st0" d="M294.1,49.4h0.5v13.1c0,0.6,0.2,1.1,0.7,1.6s1,0.6,1.6,0.6c0.5,0,0.9-0.1,1.3-0.3c0.4-0.2,0.8-0.4,1.1-0.7
		s0.6-0.6,0.8-1c0.2-0.4,0.3-0.8,0.3-1.2V51.4l4.4-1.9h0.5v17.7h-5.1v-2.4l-1.6,1.3c-1.3,1-2.9,1.5-4.6,1.5c-0.6,0-1.1-0.1-1.7-0.3
		c-0.5-0.2-1-0.5-1.4-0.8c-0.4-0.3-0.7-0.7-1-1.2c-0.2-0.4-0.4-0.9-0.4-1.4V51.4L294.1,49.4z"/>
	<path class="st0" d="M320.8,65.4l-0.7,0.6c-0.4,0.3-0.7,0.6-1,0.8c-0.3,0.2-0.6,0.4-0.9,0.5c-0.3,0.1-0.6,0.2-0.9,0.3
		c-0.3,0.1-0.7,0.1-1.1,0.1c-1.1,0-2.1-0.2-3-0.7s-1.7-1.1-2.4-1.9s-1.2-1.8-1.6-2.9c-0.4-1.1-0.6-2.4-0.6-3.8
		c0-1.3,0.2-2.4,0.6-3.5c0.4-1.1,0.9-2,1.6-2.9c0.7-0.8,1.4-1.4,2.3-1.9c0.9-0.5,1.9-0.7,2.9-0.7c1,0,1.8,0.2,2.5,0.5
		c0.7,0.3,1.3,1,1.9,1.9v-8.5l4.9-2.2h0.3v26.2h-4.9V65.4z M320.3,54.2c0-0.3-0.1-0.7-0.3-1.1c-0.2-0.4-0.5-0.7-0.9-1
		c-0.5-0.4-1.1-0.6-1.6-0.6c-1,0-1.8,0.6-2.3,1.7c-0.5,1.1-0.7,3-0.7,5.5c0,4.3,1,6.4,2.9,6.4c0.6,0,1.2-0.1,1.6-0.4
		c0.4-0.3,0.8-0.9,1.3-1.7V54.2z"/>
	<path class="st0" d="M330.2,51.5l4.6-2.2h0.4V53c0.3-0.3,0.5-0.6,0.7-0.8c0.2-0.2,0.4-0.4,0.5-0.5c0.5-0.5,0.8-0.9,1.2-1.2
		c0.3-0.3,0.6-0.6,0.9-0.7c0.3-0.2,0.5-0.3,0.8-0.3c0.3-0.1,0.6-0.1,0.9-0.1c0.1,0,0.2,0,0.3,0s0.2,0,0.3,0v5.4
		c-0.9-1-1.8-1.6-2.9-1.6c-0.4,0-0.9,0.1-1.3,0.4c-0.2,0.2-0.5,0.3-0.8,0.6c-0.4,0.2-0.6,0.5-0.7,0.7v12.2h-5V51.5z"/>
	<path class="st0" d="M348.8,61.2c0.1,1.5,0.5,2.7,1.2,3.5c0.7,0.8,1.7,1.2,2.9,1.2c1.2,0,2.2-0.3,3-0.8c0.8-0.6,1.6-1.5,2.3-2.8
		l0.4,0l-0.2,3.6c-0.8,0.6-1.8,1-2.8,1.3c-1.1,0.3-2.3,0.4-3.8,0.4c-1.3,0-2.6-0.2-3.7-0.7c-1.1-0.5-2.1-1.1-2.9-2
		c-0.8-0.9-1.4-1.9-1.8-3.1c-0.4-1.2-0.7-2.5-0.7-4c0-1.2,0.2-2.3,0.7-3.3c0.4-1,1-1.9,1.8-2.7c0.8-0.8,1.6-1.4,2.7-1.8
		c1-0.4,2.1-0.6,3.3-0.6c2.2,0,3.8,0.5,5,1.5c1.2,1,1.9,2.7,2.3,4.9L348.8,61.2z M353.7,56.1c0-1.9-0.2-3.3-0.5-4.1
		c-0.3-0.8-1-1.2-1.8-1.2s-1.6,0.4-2,1.3s-0.7,2.1-0.7,3.8c0,0.3,0,0.7,0,1.2c0,0.5,0,1.1,0,1.7L353.7,56.1z"/>
	<path class="st0" d="M362.4,50.5c0.7-0.3,1.2-0.5,1.7-0.6c0.5-0.2,0.9-0.3,1.4-0.4c0.4-0.1,0.9-0.1,1.3-0.2c0.4,0,1,0,1.5,0
		c3,0,5.1,0.6,6.3,1.9c0.4,0.4,0.7,0.9,0.9,1.5c0.2,0.6,0.3,1.5,0.3,2.6v7.8c0,0.7,0.1,1.4,0.2,2c0.1,0.7,0.3,1.3,0.6,1.9h-5.1
		l-0.6-1.5c-0.6,0.5-1.3,0.9-2.1,1.3c-0.8,0.4-1.8,0.6-2.8,0.6c-0.8,0-1.5-0.2-2.2-0.5c-0.7-0.3-1.3-0.7-1.8-1.2
		c-0.5-0.5-0.9-1.2-1.2-1.9c-0.3-0.7-0.4-1.5-0.4-2.3c0-0.9,0.2-1.7,0.5-2.4c0.3-0.7,0.8-1.3,1.3-1.8c0.6-0.5,1.3-0.9,2.1-1.2
		s1.7-0.4,2.7-0.4c1,0,1.7,0.2,2.3,0.5c0.6,0.3,1,0.6,1.4,0.9v-3.3c0-1.1-0.2-1.9-0.7-2.3c-0.5-0.4-1.3-0.6-2.4-0.6
		c-0.5,0-0.9,0-1.2,0.1c-0.4,0.1-0.7,0.2-1.1,0.4c-0.4,0.2-0.7,0.5-1.2,0.9c-0.4,0.4-0.9,0.8-1.5,1.4l-0.5,0.1L362.4,50.5z
		 M370.6,58.8c-0.3-0.3-0.7-0.5-1.1-0.7s-0.9-0.3-1.4-0.3c-0.8,0-1.4,0.3-1.8,1c-0.5,0.7-0.7,1.6-0.7,2.7c0,1.1,0.2,2.1,0.7,2.7
		c0.5,0.7,1.2,1,2,1c0.4,0,0.8-0.1,1.1-0.3c0.3-0.2,0.7-0.6,1.2-1.1V58.8z"/>
	<path class="st0" d="M384.2,49.4h0.5v13.1c0,0.6,0.2,1.1,0.7,1.6c0.4,0.4,1,0.6,1.6,0.6c0.5,0,0.9-0.1,1.3-0.3
		c0.4-0.2,0.8-0.4,1.1-0.7s0.6-0.6,0.8-1c0.2-0.4,0.3-0.8,0.3-1.2V51.4l4.4-1.9h0.5v17.7h-5.1v-2.4l-1.6,1.3c-1.3,1-2.9,1.5-4.6,1.5
		c-0.6,0-1.1-0.1-1.7-0.3c-0.5-0.2-1-0.5-1.4-0.8c-0.4-0.3-0.7-0.7-1-1.2c-0.2-0.4-0.4-0.9-0.4-1.4V51.4L384.2,49.4z"/>
</g>
<g>
	<path class="st1" d="M105.7,91.8l-3.6-9.3l-0.7,8.1l1.8,0.3c-0.1,0.4-0.4,0.7-0.8,0.7c-0.8,0-1.2,0-2,0c-0.6,0-1.2,0-1.6,0
		c-0.1-0.3,0-0.6,0.4-0.8l0.9-0.3l1.1-9.7l-1.4-0.3c-0.1-0.4,0.2-0.8,1-0.8h2.1l3.5,9.3l3.4-9.3h3.1c0.1,0.6-0.2,0.8-1.5,1.1l1,9.8
		l1.6,0.3c-0.1,0.4-0.4,0.7-0.8,0.7c-0.8,0-1.3,0-2,0c-0.7,0-1.1,0-1.9,0c0,0,0-0.1,0-0.2c0-0.3,0.2-0.4,0.5-0.5l1.1-0.3l-0.9-8.1
		l-2.8,7.8C106.9,91,106.4,91.6,105.7,91.8z"/>
	<path class="st1" d="M114.8,87.5c0-3,1.9-5.2,4.9-5.2c2.8,0,4.5,1.4,4.5,4.4c0,3-1.9,5.2-4.9,5.2C116.5,91.9,114.8,90.5,114.8,87.5
		z M122.4,87c0-2.4-1.3-3.6-3-3.6c-2,0-2.9,1.4-2.9,3.8c0,2.4,1.3,3.6,3,3.6C121.5,90.8,122.4,89.4,122.4,87z"/>
	<path class="st1" d="M131.8,91.6c-0.8,0-1.4,0-2.2,0c-0.7,0-1.3,0-2.1,0c0,0,0-0.1,0-0.2c0-0.3,0.2-0.4,0.5-0.5l1.2-0.3v-7H127
		l-0.4,1.3c-0.2,0.7-0.5,0.8-1,0.6l0.3-2.9h8.3l0.2,2c0.1,0.5-0.3,1-0.9,0.9l-0.4-1.9h-2.3v7l1.8,0.3
		C132.6,91.3,132.2,91.6,131.8,91.6z"/>
	<path class="st1" d="M140.2,91.6c-0.8,0-1.4,0-2.2,0c-0.7,0-1.3,0-2.1,0c0,0,0-0.1,0-0.2c0-0.3,0.2-0.4,0.5-0.5l1.2-0.3v-7.1
		l-1.5-0.2c-0.1-0.4,0.2-0.8,1-0.8h3.6c0.1,0.5-0.2,0.8-0.7,0.8l-0.8,0.1v7.1l1.8,0.3C140.9,91.3,140.6,91.6,140.2,91.6z"/>
	<path class="st1" d="M142.8,87.5c0-3,1.9-5.2,4.9-5.2c2.8,0,4.5,1.4,4.5,4.4c0,3-1.9,5.2-4.9,5.2C144.5,91.9,142.8,90.5,142.8,87.5
		z M150.5,87c0-2.4-1.3-3.6-3-3.6c-2,0-2.9,1.4-2.9,3.8c0,2.4,1.3,3.6,3,3.6C149.5,90.8,150.5,89.4,150.5,87z"/>
	<path class="st1" d="M163.6,91.6c-0.1,0.1-0.4,0.1-0.5,0.1c-0.5,0-0.9-0.2-1.2-0.7l-4.9-6.2v5.8l1.8,0.3c-0.1,0.4-0.4,0.7-0.8,0.7
		c-0.8,0-1.1,0-1.8,0c-0.7,0-1.3,0-2.1,0c0,0,0-0.1,0-0.2c0-0.3,0.2-0.4,0.5-0.5l1.2-0.3v-7.1l-1.5-0.2c-0.1-0.4,0.2-0.8,1-0.8h2
		l5.2,6.6v-5.7l-1.4-0.2c-0.1-0.4,0.2-0.8,1-0.8h3c0.1,0.5-0.2,0.8-0.7,0.8l-0.6,0.1V91.6z"/>
	<path class="st1" d="M172.3,91.6c-0.9,0-1.7,0-2.4,0c0,0,0-0.1,0-0.2c0-0.3,0.2-0.5,0.5-0.5l1.1-0.3v-9.7l-1.5-0.2
		c0-0.1,0-0.1,0-0.1c0-0.5,0.5-0.8,4-0.8c5.1,0,7.2,2.1,7.2,5.8c0,3.5-1.9,6.1-6,6.1C174.6,91.6,173.2,91.6,172.3,91.6z M175.3,90.7
		c2.2,0,4.1-1.5,4.1-4.5c0-3.7-2-5.5-6.4-5.5v9.8C173.6,90.6,174.3,90.7,175.3,90.7z"/>
	<path class="st1" d="M186.1,87.6v2.9l3.3,0.1l0.4-1.1c0.2-0.5,0.6-0.6,1-0.3l-0.6,2.4h-7.4c0,0,0-0.1,0-0.2c0-0.3,0.2-0.4,0.5-0.5
		l1.2-0.3v-7.1l-1.5-0.2c-0.1-0.4,0.2-0.8,1-0.8h5.9L190,84c0.1,0.6-0.2,0.9-0.8,0.9l-0.2-1.2l-2.9-0.1v3.1h2c0-0.5,0.1-1.2,0.7-1.2
		c0.1,0,0.3,0,0.3,0.1c-0.1,1-0.1,1.7-0.1,2.5c0,0.7-0.6,0.9-1.1,0.7l0.1-1.2H186.1z"/>
	<path class="st1" d="M195.6,91.9c-2,0-3-0.7-3-1.8c0-0.7,0.5-1.3,1.3-1.2c0,1.2,0.7,1.9,2,1.9c0.9,0,1.6-0.5,1.6-1.4
		c0-0.8-0.4-1.3-1.9-1.8c-1.9-0.7-2.5-1.3-2.5-2.6c0-1.4,1.1-2.7,3.2-2.7c1.1,0,1.8,0.1,2.6,0.5l-0.2,1.6c-0.1,0.6-0.4,0.9-1.1,0.7
		l0-1.6c-0.4-0.2-0.9-0.3-1.5-0.3c-0.9,0-1.5,0.5-1.5,1.2c0,0.7,0.2,1,2.1,1.7c2,0.7,2.5,1.6,2.5,2.8
		C199.2,90.6,197.9,91.9,195.6,91.9z"/>
	<path class="st1" d="M205.4,91.6c-0.8,0-1.4,0-2.2,0c-0.7,0-1.3,0-2.1,0c0,0,0-0.1,0-0.2c0-0.3,0.2-0.4,0.5-0.5l1.2-0.3v-7.1
		l-1.5-0.2c-0.1-0.4,0.2-0.8,1-0.8h3.6c0.1,0.5-0.2,0.8-0.7,0.8l-0.8,0.1v7.1l1.8,0.3C206.1,91.3,205.8,91.6,205.4,91.6z"/>
	<path class="st1" d="M216.1,90.8c-0.9,0.6-2.2,1-3.8,1c-2.9,0-4.3-1.8-4.3-4.5c0-2.9,2-5.1,5-5.1c1.3,0,2.5,0.2,3.1,0.5l-0.3,1.9
		c-0.1,0.6-0.4,0.9-0.8,0.9c-0.1,0-0.2,0-0.3-0.1l0.1-1.8c-0.6-0.2-1.3-0.4-2-0.4c-2,0-3.1,1.3-3.1,3.8c0,2.2,1.1,3.6,3.4,3.6
		c0.6,0,1-0.1,1.4-0.2v-2.2l-1.7-0.2c-0.1-0.4,0.2-0.8,1-0.8h3.5c0.1,0.5-0.2,0.8-0.7,0.8l-0.5,0.1V90.8z"/>
	<path class="st1" d="M228.6,91.6c-0.1,0.1-0.4,0.1-0.5,0.1c-0.5,0-0.8-0.2-1.2-0.7l-4.9-6.2v5.8l1.8,0.3c-0.1,0.4-0.4,0.7-0.8,0.7
		c-0.8,0-1.1,0-1.8,0c-0.7,0-1.3,0-2.1,0c0,0,0-0.1,0-0.2c0-0.3,0.2-0.4,0.5-0.5l1.2-0.3v-7.1l-1.5-0.2c-0.1-0.4,0.2-0.8,1-0.8h2
		l5.2,6.6v-5.7l-1.4-0.2c-0.1-0.4,0.2-0.8,1-0.8h3c0.1,0.5-0.2,0.8-0.7,0.8l-0.6,0.1V91.6z"/>
	<path class="st1" d="M234.9,87.6v2.9l3.3,0.1l0.4-1.1c0.2-0.5,0.6-0.6,1-0.3l-0.6,2.4h-7.4c0,0,0-0.1,0-0.2c0-0.3,0.2-0.4,0.5-0.5
		l1.2-0.3v-7.1l-1.5-0.2c-0.1-0.4,0.2-0.8,1-0.8h5.9l0.1,1.4c0.1,0.6-0.2,0.9-0.8,0.9l-0.2-1.2l-2.9-0.1v3.1h2
		c0-0.5,0.1-1.2,0.7-1.2c0.1,0,0.3,0,0.3,0.1c-0.1,1-0.1,1.7-0.1,2.5c0,0.7-0.6,0.9-1.1,0.7l0.1-1.2H234.9z"/>
	<path class="st1" d="M246.4,90.9c-0.1,0.4-0.4,0.7-0.8,0.7c-0.8,0-1.3,0-2,0c-0.7,0-1.3,0-2.1,0c0,0,0-0.1,0-0.2
		c0-0.3,0.2-0.4,0.5-0.5l1.2-0.3v-7.1l-1.5-0.2c0-0.1,0-0.1,0-0.1c0-0.5,0.3-0.8,3-0.8c3.6,0,4.8,1,4.8,2.6c0,1.2-0.8,2.3-2,2.6
		c0.8,1,2.6,3,3.9,3.6c-0.2,0.3-0.7,0.7-1.3,0.7c-0.7,0-1.4-0.3-2.2-1.2c-0.5-0.6-1.1-1.9-1.5-2.6h-1.6v2.6L246.4,90.9z M244.8,83.3
		v3.9c2,0.2,2.9-0.6,2.9-2C247.7,84.1,247,83.3,244.8,83.3z"/>
</g>
<g>
	<path class="st0" d="M72.1,10.4c-0.4-1.9-1.3-3.6-3-3.9c-1.1,0-1.7,0.9-2.6,2.8c-0.5,1-1.1,2.4-1.7,4.2c0,0-0.3,1.9-1,3.5
		c-1.1,1.9-0.5,2.7-2.3,5.6c-0.9,1.4-0.8,2.8-2,4.5c-1.3,1.9-1.4,3.6-2.3,5.1c-0.5,1-0.8,1.7-2.1,3.7c-0.9,1.4-2.1,2.7-4,3.7
		c-1.4,0.8-2.6,1.9-4.2,2.4c-3.1,1.1-2.3,0.8-4,1.3c-0.3,0.1-1.6,0.4-1.9,0.4c-0.9,0-2.2,0.1-2.8,0.1c-1.5,0-3.2-1.7-3.6-3.2
		c-0.6-2.7-0.3-3.3-0.2-4.1c0.1-1,0.5-1.8,1.6-3.8c0,0,0,0,0,0c2,2.5,5.7,3.1,8.3,1.1c2.7-2,3.3-5.8,1.3-8.5c-0.4-0.6-1-1.1-1.5-1.5
		c0.3-0.3,0.7-0.6,1.2-1c1.4-1.3,2.3-1.7,3.3-2c0.2-0.1,1.5-0.2,1.8-0.2c1.3,0,1.9,0.4,3.3,1c0.4,0.1,0.6,0.3,1,0.3l1.2,0
		c0.8,0,1.6-0.1,2.3-1.7c0.7-1.8,1.5-2.8,1.7-4.1c0.1-0.8,0-1.3-0.2-2.3c-0.5-2.3-2.3-3-3.9-3.4l-0.5-0.1c-1.2,0-2.8,0.8-4.4,1.6
		c-1.6,0.8-2.8,1-4.4,2.4c-0.7,0.6-2.9,2-4.2,3.3c-1.3,1.1-4.6,3.8-5.7,5.4s-3,2.8-4.7,4.8c-1.7,2-2.8,3.3-4,4.5
		c-1.2,1.1-2.9,3.8-3.1,6.3c-0.1,1.3-0.9,3.6-0.5,5l0.1,0.5c0.5,2.3,2.8,5.2,4.9,5.4c0.5,0,3.2,0.8,3.7,0.8c1.5,0,4.1-0.6,5.1-0.6
		c1.5,0,2.7-1,4.2-1.4c1.5-0.4,2.3-1.3,3.5-1.9c1.4-0.8,4.4-2,4.9-2c0.4,0,0.5,0.1,0.6,0.4c0.2,1-0.5,2.7-1.6,4.9
		c-1.8,3.2-0.9,2.7-2.1,5.2c-0.8,1.8-2.1,3.8-2.7,5.8c-0.1,0.3-0.2,0.6-0.3,0.8c-0.7,1.8-1.6,3.7-2.5,5.3c-0.9,1.7-1.8,3.4-2.6,5.3
		c-0.5,1.8-2.2,4.4-3.2,6.5c0,0-2.5,3.8-3.6,7.2c-0.8,2.4-3.2,4.8-3.6,6.5c-0.9,2.5-1.4,3-2.2,4.3c-0.3,0.5-0.7,1.1-1.1,2
		c-1.6,2.9-3.2,4.6-3.3,4.6c-0.4,0-0.4-0.4-0.6-0.9c-0.3-1.3-0.3-3.5-0.4-4L21.1,97c-0.2-1-1.1-4.9-1.9-4.9c-0.2,0-0.5,0-0.6,0.1
		c-2,1.1-0.6,4.4-1.4,9.5c-0.6,3.2-1.1,3.7-2.1,7c-0.7,2-2.1,5.6-3,7.2c-1.2,2-1.5,4.2-3.6,7.2c-2.2,3.1-2.8,3.7-4,5.5
		c-1.1,1.8-1.4,3.7-1,5.4l0.4,1.7c0.3,1.1,1.5,2.5,2.7,3.4c0.1,0,0.3-0.1,0.5-0.3c0.4-0.4,1.2-1.5,1.7-2.5c0,0,0.9-1.5,2.2-4
		c0.3-0.5,0.6-1,0.9-1.6c1.7-3.3,2.6-4.2,3.3-5.8c1.1-1.9,1.8-3.7,3.4-6c1.2-1.7,3-4.3,3.7-5.9c1.6-3.5,2.6-3.8,3.8-6.9
		c1.8-4,2.7-4.5,4.1-7.2c0.2-0.4,0.5-0.9,0.7-1.5c1.8-4.2,3.9-6.5,4.7-8.7c2-5.2,1.3-2.4,3.5-7.2c1.6-3.4,3.8-6.6,4.9-9.4
		c1.1-2.8,2.3-4.9,3.1-6.7c0.2-0.6,0.4-1.1,0.7-1.6c0.6-1.4,1.4-2.8,2.3-4.7c1.2-2.4,2-3.8,2.6-5.5c0.8-2.2,2.2-3.7,2.9-6
		c0.7-2.3,2.1-4,3-6.3c0.9-2.3,2.2-4.1,2.5-5.4c0.7-2,2.2-4.2,2.8-6.1c0.1-0.1,0.1-0.3,0.2-0.4c0.8-1.8,2.2-3.4,2.7-5.3
		c0.8-1.6,1.3-2.6,1.8-3.6c0.8-1.5,1.9-3.9,2.7-5.7c0.3-0.7,0.6-1.3,0.8-2c0,0,0.3-1.2,0.5-1.8C72.1,10.6,72.1,10.4,72.1,10.4z"/>
	<g>
		<path class="st0" d="M78.9,43.9c0-3.3-2.5-8-5.9-8c-0.8,0-1.5,0.7-1.5,1.6c0,0.8,0.7,1.5,1.5,1.5c0.7,0,1.2-0.3,1.5-0.9
			c1.2,1,2.4,3,2.4,6.2c0,9.1-9.4,19.5-24,21.8L51,66.4c-0.9,0.1-1.9,0.2-2.8,0.2c-7,0-15.7-3.7-22.2-10.1l-1-1
			c-5.5-5.7-9.4-13.6-9.4-23c0-1.4,0.4-5.5,0.4-5.5C19.1,9.7,32.2,2,34.1,1.4c1-0.2,1.5-0.6,1.5-1c0-0.2-0.3-0.4-0.8-0.4
			c-0.1,0-0.4,0.1-0.6,0.1C13.7,5.3,0,24.6,0,44.7c0,6.4,1.4,12.9,4.4,19c8.1,16.6,23.9,22.2,40.5,22.2c3,0,6-0.2,9-0.5
			c-0.5,1.1-0.6,2.9-0.6,4.1c0.2,4.1,1.9,5.4,3.1,5.4c0.8,0,1.5-0.4,1.5-1.1c0-0.5-0.5-0.9-0.8-0.9c-0.4,0-0.7,0.3-1,0.3
			c-0.5,0-1.1-2.4-1.1-3.8c0-7.1,5.7-15,12-22.7C75.3,56.6,78.7,50.3,78.9,43.9z"/>
	</g>
</g>
</svg>
