<?xml version="1.0" encoding="UTF-8"?>
<svg id="Layer_1" xmlns="http://www.w3.org/2000/svg" version="1.1" viewBox="0 0 885.3 397.4">
  <!-- Generator: Adobe Illustrator 29.2.1, SVG Export Plug-In . SVG Version: 2.1.0 Build 116)  -->
  <defs>
    <style>
      .st0 {
        fill: #f4ca76;
      }
    </style>
  </defs>
  <g>
    <rect class="st0" x="237.4" y="206.5" width="647.9" height="4.8"/>
    <path class="st0" d="M279.9,190c-.8.4-1.4.8-1.9,1.1-.5.3-1,.5-1.4.6-.8.3-1.6.6-2.7.9-1,.3-2.1.5-3.3.7-1.1.2-2.3.4-3.5.5s-2.3.2-3.3.2c-3.8,0-7.4-.7-10.6-2.2-3.3-1.5-6.1-3.6-8.4-6.2-2.3-2.7-4.2-5.8-5.5-9.5-1.3-3.6-2-7.6-2-12s.7-8.4,2.1-12c1.4-3.6,3.3-6.7,5.8-9.3,2.5-2.6,5.5-4.6,9.1-6,3.5-1.4,7.4-2.1,11.7-2.1s2.2,0,3.2.1c.9,0,1.8.2,2.7.4.9.2,1.8.4,2.8.7,1,.3,2.1.8,3.3,1.3l.3,7.4-.7.2c-1.8-2.2-3.7-3.7-5.7-4.7-2-1-4.3-1.4-6.9-1.4-4.8,0-8.3,2.1-10.6,6.2-2.3,4.2-3.4,10.7-3.4,19.5s1.3,15.1,3.9,19.3c2.6,4.1,6.7,6.2,12.2,6.2s1.7,0,2.4-.1c.8,0,1.6-.3,2.4-.5.8-.2,1.7-.6,2.7-1,1-.4,2.1-.9,3.4-1.5l1.8,3.2h0Z"/>
    <path class="st0" d="M287.2,140.2l10.1-4.9h1v25c1.4-1.3,2.7-2.3,3.9-3.2s2.3-1.5,3.3-2.1c1-.5,2-.9,3-1.1s2-.3,2.9-.3,2.6.3,3.8.7,2.3,1.2,3.3,2,1.7,1.8,2.2,2.9.8,2.2.8,3.4v30h-10.9v-28c0-.3-.2-.8-.5-1.5-.8-1.2-1.4-2-1.9-2.4s-1.2-.6-2.2-.6-2.5.3-3.5.8c-3,1.2-4.5,2.9-4.5,4.9v26.9h-10.9v-52.6h0Z"/>
    <path class="st0" d="M332,156.6c1.4-.6,2.6-1,3.7-1.4,1-.3,2-.6,3-.8s1.9-.3,2.9-.4,2.1-.1,3.4-.1c6.5,0,11.1,1.4,13.8,4.2,1,.9,1.6,2,2,3.4.4,1.3.6,3.2.6,5.6v17c0,1.6.1,3,.4,4.5s.7,2.8,1.3,4.3h-11.1l-1.2-3.2c-1.2,1.1-2.8,2-4.6,2.8s-3.9,1.2-6.1,1.2-3.4-.3-4.9-1-2.8-1.6-3.9-2.7c-1.1-1.2-2-2.5-2.6-4.1-.6-1.6-.9-3.3-.9-5.1s.4-3.6,1.1-5.1c.7-1.5,1.7-2.9,2.9-4,1.3-1.1,2.8-2,4.5-2.6,1.7-.6,3.7-.9,5.8-.9s3.7.3,5,1c1.2.7,2.3,1.3,3.1,2v-7.2c0-2.4-.5-4.1-1.6-5-1-.9-2.8-1.4-5.2-1.4s-1.9,0-2.7.3c-.8.2-1.6.5-2.3,1-.8.4-1.6,1.1-2.6,1.9-.9.8-2,1.8-3.3,3.1h-1c0,.1.6-7.2.6-7.2h0ZM349.9,174.6c-.7-.7-1.5-1.2-2.5-1.6s-2-.6-3-.6c-1.7,0-3,.7-4,2.2-1,1.4-1.5,3.4-1.5,6s.5,4.5,1.6,5.9c1.1,1.4,2.5,2.2,4.4,2.2s1.7-.2,2.4-.6c.7-.4,1.6-1.3,2.6-2.5v-10.9h0Z"/>
    <path class="st0" d="M370.1,158l10.4-4.8h.6v6.5c1.2-1.2,2.3-2.2,3.4-3,1.1-.8,2.1-1.5,3.2-2,1.1-.5,2.1-.9,3.2-1.1,1.1-.2,2.3-.4,3.5-.4s2.9.2,4.2.7c1.3.4,2.5,1.1,3.5,1.9,1,.9,1.8,1.9,2.3,3.1.6,1.2.9,2.6.9,4.1v29.7h-11.5v-27.5c0-.8,0-1.5-.3-2.2s-.4-1.4-.8-2c-.4-.6-.9-1-1.4-1.4s-1.3-.5-2.1-.5-1.7.2-2.6.5c-.8.3-1.6.8-2.2,1.3s-1.3,1.1-1.8,1.7-1,1.2-1.4,1.7v28.4h-10.9v-34.8h0Z"/>
    <path class="st0" d="M438.1,188.9l-1.5,1.2c-.9.7-1.6,1.3-2.3,1.7s-1.3.8-1.9,1.1c-.6.3-1.3.4-2,.6s-1.5.2-2.5.2c-2.4,0-4.5-.5-6.5-1.5-2-1-3.7-2.4-5.2-4.2s-2.6-3.9-3.4-6.4c-.8-2.5-1.2-5.2-1.2-8.2s.4-5.3,1.2-7.7,2-4.5,3.4-6.2c1.4-1.8,3.1-3.2,5.1-4.2s4.1-1.5,6.4-1.5,4,.4,5.4,1.1c1.4.8,2.8,2.1,4.2,4v-18.7l10.6-4.9h.7v57.3h-10.6v-3.8h0ZM436.9,164.6c0-.8-.2-1.6-.7-2.4s-1.1-1.6-1.9-2.2c-1.2-.9-2.3-1.3-3.5-1.3-2.3,0-3.9,1.2-4.9,3.7-1,2.5-1.5,6.5-1.5,12,0,9.3,2.1,14,6.2,14s2.5-.3,3.4-1c.9-.6,1.9-1.9,2.8-3.8v-19.1h0Z"/>
    <path class="st0" d="M458,140.8l10.8-5.4h1.1v57.4h-12v-52h0Z"/>
    <path class="st0" d="M490.6,179.8c.2,3.3,1.1,5.9,2.7,7.6s3.7,2.7,6.3,2.7,4.8-.6,6.6-1.8c1.8-1.2,3.5-3.3,5-6.1h.9c0,0-.4,7.9-.4,7.9-1.8,1.3-3.8,2.2-6.1,2.8-2.3.6-5,.9-8.3.9s-5.6-.5-8-1.5-4.5-2.5-6.2-4.4c-1.7-1.9-3.1-4.1-4-6.7-1-2.6-1.4-5.5-1.4-8.7s.5-5,1.4-7.3,2.3-4.2,3.9-5.9c1.7-1.7,3.6-3,5.8-3.9,2.2-.9,4.6-1.4,7.2-1.4,4.7,0,8.4,1.1,10.9,3.4,2.6,2.3,4.2,5.8,5,10.7l-21.4,12h0ZM501.1,168.6c0-4.2-.4-7.2-1.1-8.9-.8-1.7-2.1-2.6-4.1-2.6s-3.4.9-4.4,2.8-1.5,4.6-1.5,8.3,0,1.5,0,2.6,0,2.3.1,3.7l11-6h0Z"/>
    <path class="st0" d="M519.9,158.6l10-4.8h.9v8c.6-.7,1.1-1.2,1.5-1.7.4-.4.8-.8,1-1.2,1-1,1.8-1.9,2.5-2.6.7-.7,1.3-1.2,1.9-1.6.6-.4,1.2-.6,1.8-.7.6-.1,1.3-.2,2-.2h.7c.2,0,.5,0,.7,0v11.9c-1.9-2.3-4-3.4-6.2-3.4s-1.9.3-2.8.9c-.4.3-1,.8-1.8,1.3s-1.3,1-1.5,1.6v26.7h-10.9v-34.2h0Z"/>
    <path class="st0" d="M603.9,145.8h-.8c-.9-1.3-1.7-2.4-2.6-3.3s-1.8-1.6-2.8-2.2-2-.9-3.1-1.2c-1.1-.2-2.4-.4-3.8-.4-9.5,0-14.2,9.1-14.2,27.4s1.1,13.6,3.4,17.6c2.3,4,5.6,6,9.9,6s1.3,0,2,0,1.5-.1,2.3-.2v-22.1h-4.7c-.4,0-.6-.1-.6-.4l.3-3.3c0-.3.2-.4.6-.4h16v21.7l1.5,2.1c-2.2,1.9-4.1,3.2-5.6,4-1.5.8-3.2,1.5-5.3,2-2.1.5-4.1.8-6.1.8-3.7,0-7.2-.8-10.4-2.3-3.2-1.5-6-3.6-8.3-6.3-2.4-2.7-4.2-5.8-5.6-9.4-1.3-3.6-2-7.5-2-11.7s.7-8.3,2.1-11.9c1.4-3.7,3.3-6.8,5.7-9.5,2.5-2.7,5.4-4.7,8.8-6.2s7.1-2.2,11.1-2.2,2.9.2,4.6.6c1.7.4,4.1,1.1,7.1,2l.6,8.7h0Z"/>
    <path class="st0" d="M630.5,193.7c-2.7,0-5.1-.5-7.3-1.5s-4.2-2.3-5.8-4.1c-1.6-1.7-2.9-3.8-3.8-6.2-.9-2.4-1.3-5.1-1.3-8s.5-5.5,1.4-7.9c.9-2.4,2.2-4.6,3.8-6.4,1.6-1.8,3.5-3.3,5.6-4.3s4.5-1.6,7-1.6,4.8.5,7,1.6,4.1,2.5,5.6,4.3c1.6,1.8,2.8,4,3.7,6.5.9,2.5,1.3,5.2,1.3,8s-.4,5.5-1.3,7.8c-.9,2.4-2.1,4.5-3.6,6.2-1.5,1.7-3.4,3.1-5.5,4.1-2.1,1-4.4,1.5-6.9,1.5h0ZM624.3,173.8c0,3.2,0,5.9.3,8,.2,2.1.5,3.8.9,5,.4,1.3,1,2.1,1.7,2.6s1.7.7,2.8.7,1.7-.3,2.4-.9,1.3-1.6,1.8-2.9.9-3.2,1.1-5.5.4-5.1.4-8.5-.2-5-.5-6.9c-.3-1.9-.7-3.4-1.2-4.6-.5-1.2-1.1-2.1-1.8-2.6-.7-.5-1.4-.8-2.1-.8-1.5,0-2.7.6-3.5,1.9s-1.4,2.8-1.8,4.5c-.4,1.7-.6,3.6-.7,5.4s-.1,3.4-.1,4.6h0Z"/>
    <path class="st0" d="M664,154.1h1v28.6c0,1.4.5,2.5,1.5,3.4,1,.9,2.2,1.3,3.6,1.3s2-.2,2.9-.6c.9-.4,1.7-.9,2.4-1.5s1.3-1.4,1.7-2.2c.4-.8.6-1.7.6-2.6v-22.2l9.7-4.3h1.1v38.6h-11.1v-5.2l-3.5,2.8c-2.9,2.2-6.3,3.3-10.1,3.3s-2.5-.2-3.6-.6c-1.1-.4-2.1-1-3-1.7s-1.6-1.6-2.1-2.5c-.5-.9-.8-2-.8-3v-27.2l9.7-4.3h0Z"/>
    <path class="st0" d="M722.3,188.9l-1.5,1.2c-.9.7-1.6,1.3-2.3,1.7-.7.4-1.3.8-1.9,1.1-.6.3-1.3.4-2,.6s-1.5.2-2.5.2c-2.4,0-4.5-.5-6.5-1.5-2-1-3.7-2.4-5.2-4.2-1.5-1.8-2.6-3.9-3.4-6.4-.8-2.5-1.2-5.2-1.2-8.2s.4-5.3,1.2-7.7,2-4.5,3.4-6.2c1.4-1.8,3.1-3.2,5.1-4.2s4.1-1.5,6.4-1.5,4,.4,5.4,1.1c1.4.8,2.8,2.1,4.2,4v-18.7l10.6-4.9h.7v57.3h-10.6v-3.8h0ZM721.2,164.6c0-.8-.2-1.6-.7-2.4s-1.1-1.6-1.9-2.2c-1.2-.9-2.3-1.3-3.5-1.3-2.3,0-3.9,1.2-4.9,3.7-1,2.5-1.5,6.5-1.5,12,0,9.3,2.1,14,6.2,14s2.5-.3,3.4-1c.9-.6,1.9-1.9,2.8-3.8v-19.1h0Z"/>
    <path class="st0" d="M742.9,158.6l10-4.8h.9v8c.6-.7,1.1-1.2,1.5-1.7.4-.4.8-.8,1-1.2,1-1,1.8-1.9,2.5-2.6.7-.7,1.3-1.2,1.9-1.6.6-.4,1.2-.6,1.8-.7.6-.1,1.3-.2,2-.2h.7c.2,0,.5,0,.7,0v11.9c-1.9-2.3-4-3.4-6.2-3.4s-1.9.3-2.8.9c-.4.3-1,.8-1.8,1.3-.8.5-1.3,1-1.5,1.6v26.7h-10.9v-34.2h0Z"/>
    <path class="st0" d="M783.6,179.8c.2,3.3,1.1,5.9,2.7,7.6s3.7,2.7,6.3,2.7,4.8-.6,6.6-1.8,3.5-3.3,5-6.1h.9c0,0-.4,7.9-.4,7.9-1.8,1.3-3.8,2.2-6.1,2.8-2.3.6-5.1.9-8.3.9s-5.6-.5-8-1.5-4.5-2.5-6.2-4.4c-1.7-1.9-3.1-4.1-4-6.7s-1.4-5.5-1.4-8.7.5-5,1.4-7.3,2.3-4.2,3.9-5.9c1.6-1.7,3.6-3,5.8-3.9,2.2-.9,4.6-1.4,7.2-1.4,4.7,0,8.4,1.1,10.9,3.4,2.6,2.3,4.2,5.8,5,10.7l-21.4,12h0ZM794.2,168.6c0-4.2-.4-7.2-1.1-8.9s-2.1-2.6-4-2.6-3.4.9-4.4,2.8-1.5,4.6-1.5,8.3,0,1.5,0,2.6,0,2.3.1,3.7l11-6h0Z"/>
    <path class="st0" d="M813.2,156.6c1.4-.6,2.7-1,3.7-1.4,1-.3,2-.6,3-.8s1.9-.3,2.9-.4,2.1-.1,3.4-.1c6.5,0,11.1,1.4,13.8,4.2,1,.9,1.6,2,2,3.4.4,1.3.6,3.2.6,5.6v17c0,1.6.1,3,.4,4.5.3,1.4.7,2.8,1.3,4.3h-11.1l-1.2-3.2c-1.2,1.1-2.8,2-4.6,2.8-1.8.8-3.9,1.2-6.1,1.2s-3.4-.3-4.9-1-2.8-1.6-3.9-2.7c-1.1-1.2-2-2.5-2.6-4.1-.6-1.6-.9-3.3-.9-5.1s.3-3.6,1.1-5.1c.7-1.5,1.7-2.9,2.9-4s2.8-2,4.5-2.6,3.7-.9,5.8-.9,3.7.3,5,1,2.3,1.3,3,2v-7.2c0-2.4-.5-4.1-1.6-5-1-.9-2.8-1.4-5.2-1.4s-1.9,0-2.7.3c-.8.2-1.6.5-2.3,1-.8.4-1.6,1.1-2.6,1.9-.9.8-2,1.8-3.3,3.1h-1c0,.1.6-7.2.6-7.2h0ZM831,174.6c-.7-.7-1.5-1.2-2.5-1.6s-2-.6-3-.6c-1.7,0-3,.7-4,2.2s-1.5,3.4-1.5,6,.5,4.5,1.6,5.9c1.1,1.4,2.5,2.2,4.4,2.2s1.7-.2,2.4-.6c.7-.4,1.6-1.3,2.6-2.5v-10.9h0Z"/>
    <path class="st0" d="M860.8,154.1h1v28.6c0,1.4.5,2.5,1.5,3.4,1,.9,2.2,1.3,3.6,1.3s2-.2,2.9-.6,1.7-.9,2.4-1.5c.7-.6,1.3-1.4,1.7-2.2.4-.8.6-1.7.6-2.6v-22.2l9.7-4.3h1.1v38.6h-11.1v-5.2l-3.5,2.8c-2.9,2.2-6.3,3.3-10.1,3.3s-2.5-.2-3.6-.6c-1.1-.4-2.1-1-3-1.7s-1.6-1.6-2.1-2.5c-.5-.9-.8-2-.8-3v-27.2l9.7-4.3h0Z"/>
    <path class="st0" d="M261.2,264.4l-12.4-32.2-2.3,28,6.2,1.1c-.2,1.4-1.4,2.4-2.7,2.4-2.6,0-4.1-.1-6.8-.1s-4,0-5.7.1c-.4-1,0-2.1,1.4-2.6l3-.9,3.7-33.6-5-1.1c-.3-1.4.7-2.6,3.6-2.6h7.2l12.3,32.3,11.9-32.3h10.7c.5,2-.8,2.8-5.3,3.6l3.5,33.9,5.4.9c-.2,1.4-1.4,2.4-2.7,2.4-2.6,0-4.4-.1-7-.1s-3.8,0-6.5.1c0-.1-.1-.4-.1-.7,0-.9.6-1.4,1.8-1.8l3.6-.9-3.1-28.2-9.7,27c-.9,2.6-2.6,4.6-5,5.2h0Z"/>
    <path class="st0" d="M292.7,249.5c0-10.4,6.6-17.9,17-17.9s15.6,4.9,15.6,15.1-6.6,17.9-17,17.9-15.6-4.9-15.6-15.1h0ZM319.1,247.7c0-8.2-4.5-12.5-10.2-12.5s-10,5-10,13.2,4.5,12.4,10.3,12.4,10-4.9,10-13.2h0Z"/>
    <path class="st0" d="M351.7,263.7c-2.6,0-5-.1-7.7-.1s-4.5,0-7.2.1c0-.1-.1-.4-.1-.7,0-.9.6-1.4,1.8-1.8l4-1.1v-24.4h-7.5l-1.4,4.5c-.8,2.3-1.9,2.8-3.5,2.2l1.1-10h28.6l.8,7c.2,1.7-.9,3.3-3.1,3l-1.4-6.6h-7.8v24.4l6.2,1.1c-.2,1.4-1.4,2.4-2.7,2.4h0Z"/>
    <path class="st0" d="M380.8,263.7c-2.6,0-5-.1-7.7-.1s-4.5,0-7.2.1c0-.1-.1-.4-.1-.7,0-.9.6-1.4,1.8-1.8l4-1.1v-24.6l-5.1-.6c-.2-1.4.7-2.6,3.6-2.6h12.6c.4,1.7-.6,2.7-2.6,2.9l-2.8.3v24.6l6.1,1.1c-.2,1.4-1.4,2.4-2.7,2.4h0Z"/>
    <path class="st0" d="M389.8,249.5c0-10.4,6.6-17.9,17-17.9s15.6,4.9,15.6,15.1-6.6,17.9-17,17.9-15.6-4.9-15.6-15.1h0ZM416.3,247.7c0-8.2-4.5-12.5-10.2-12.5s-10,5-10,13.2,4.5,12.4,10.3,12.4,10-4.9,10-13.2h0Z"/>
    <path class="st0" d="M461.9,263.8c-.4.2-1.3.4-1.9.4-1.7,0-3-.8-4.3-2.6l-17.1-21.4v20l6.1,1.1c-.2,1.4-1.4,2.4-2.7,2.4-2.6,0-3.6-.1-6.3-.1s-4.5,0-7.2.1c0-.1-.1-.4-.1-.7,0-.9.6-1.4,1.8-1.8l4-1.1v-24.6l-5.1-.6c-.3-1.4.7-2.6,3.6-2.6h6.9l18,22.9v-19.7l-5-.6c-.3-1.4.7-2.6,3.6-2.6h10.3c.4,1.7-.6,2.7-2.6,2.9l-2,.3v28.3h0Z"/>
    <path class="st0" d="M491.9,263.6c-3.2,0-5.8,0-8.5.1,0-.1-.1-.4-.1-.7,0-.9.6-1.6,1.8-1.9l3.7-1.1v-33.7l-5.3-.6c0-.2,0-.4,0-.5,0-1.6,1.7-2.8,14-2.8,17.6,0,25.1,7.3,25.1,20.2s-6.6,21.2-20.8,21.2-6.5-.2-9.8-.2h0ZM502.4,260.5c7.8,0,14.1-5.1,14.1-15.8s-6.8-19-22-19v33.9c2.2.5,4.4.8,8,.8h0Z"/>
    <path class="st0" d="M539.7,250v10.2l11.4.4,1.5-3.9c.6-1.6,2.1-2.1,3.5-1.2l-2,8.3h-25.7c0-.1-.1-.4-.1-.7,0-.9.6-1.4,1.8-1.8l4-1.1v-24.6l-5.1-.6c-.2-1.4.7-2.6,3.6-2.6h20.3l.4,4.8c.2,2-.8,3-2.9,3l-.8-4.2-9.9-.3v10.9h7c0-1.8.2-4,2.3-4s.9,0,1.2.3c-.2,3.6-.3,5.9-.3,8.6s-2.1,3-3.6,2.6l.2-4h-6.8Z"/>
    <path class="st0" d="M572.7,264.6c-6.8,0-10.5-2.4-10.5-6.2s1.8-4.4,4.6-4c.1,4.3,2.5,6.7,7.1,6.7s5.4-1.6,5.4-4.8-1.3-4.5-6.7-6.4c-6.5-2.3-8.6-4.6-8.6-9s4-9.4,11-9.4,6.1.5,9.2,1.8l-.7,5.7c-.4,2.1-1.5,3-3.8,2.4v-5.6c-1.4-.6-3.2-.9-5.1-.9-3,0-5.1,1.6-5.1,4.3s.6,3.6,7.2,5.9c7,2.4,8.6,5.4,8.6,9.6s-4.5,10-12.5,10h0Z"/>
    <path class="st0" d="M606.7,263.7c-2.6,0-5-.1-7.7-.1s-4.5,0-7.2.1c0-.1-.1-.4-.1-.7,0-.9.6-1.4,1.8-1.8l4-1.1v-24.6l-5.1-.6c-.2-1.4.7-2.6,3.6-2.6h12.6c.4,1.7-.6,2.7-2.6,2.9l-2.8.3v24.6l6.1,1.1c-.2,1.4-1.4,2.4-2.7,2.4h0Z"/>
    <path class="st0" d="M643.9,261c-3.2,2.1-7.7,3.6-13.3,3.6-10,0-14.9-6.3-14.9-15.4s7-17.6,17.3-17.6,8.7.8,10.9,1.8l-1.1,6.5c-.4,2.1-1.3,3-2.6,3s-.8-.1-1.1-.3l.4-6.2c-2.1-.8-4.5-1.3-6.8-1.3-6.8,0-10.8,4.5-10.8,13.1s3.8,12.4,11.6,12.4,3.6-.2,4.7-.6v-7.5l-5.8-.6c-.2-1.4.7-2.6,3.6-2.6h12.2c.4,1.7-.6,2.7-2.6,2.9l-1.7.2v8.5h0Z"/>
    <path class="st0" d="M687.3,263.8c-.4.2-1.3.4-1.9.4-1.7,0-2.9-.8-4.3-2.6l-17.1-21.4v20l6.2,1.1c-.2,1.4-1.4,2.4-2.7,2.4-2.6,0-3.6-.1-6.3-.1s-4.5,0-7.2.1c0-.1-.1-.4-.1-.7,0-.9.6-1.4,1.8-1.8l4-1.1v-24.6l-5.1-.6c-.3-1.4.7-2.6,3.6-2.6h6.9l17.9,22.9v-19.7l-5-.6c-.2-1.4.7-2.6,3.6-2.6h10.3c.4,1.7-.6,2.7-2.6,2.9l-2,.3v28.3h0Z"/>
    <path class="st0" d="M709.2,250v10.2l11.4.4,1.5-3.9c.6-1.6,2.1-2.1,3.5-1.2l-2,8.3h-25.7c0-.1-.1-.4-.1-.7,0-.9.6-1.4,1.8-1.8l4-1.1v-24.6l-5.1-.6c-.2-1.4.7-2.6,3.6-2.6h20.3l.4,4.8c.2,2-.8,3-2.9,3l-.8-4.2-9.9-.3v10.9h7c0-1.8.2-4,2.3-4s.9,0,1.2.3c-.2,3.6-.3,5.9-.3,8.6s-2.1,3-3.6,2.6l.2-4h-6.8Z"/>
    <path class="st0" d="M748.9,261.3c-.2,1.4-1.4,2.4-2.7,2.4-2.6,0-4.4-.1-7-.1s-4.5,0-7.2.1c0-.1-.1-.4-.1-.7,0-.9.6-1.4,1.8-1.8l4-1.1v-24.6l-5.1-.6c0-.2,0-.3,0-.4,0-1.6,1.2-2.6,10.5-2.6s16.5,3.5,16.5,9-2.8,7.8-6.8,9c2.6,3.6,9,10.3,13.4,12.5-.6,1.1-2.4,2.3-4.5,2.3s-4.8-.9-7.5-4.3c-1.6-2.1-4-6.5-5.2-9.1h-5.5v8.9l5.5,1.1h0ZM743.3,235v13.5c7,.6,10.2-1.9,10.2-6.8s-2.4-6.7-10.2-6.7Z"/>
  </g>
  <g>
    <path class="st0" d="M206.1,29.7c-1.2-5.5-3.6-10.3-8.5-11.1-3,0-4.8,2.5-7.3,8-1.4,2.9-3.2,7-4.7,12.1,0,0-.8,5.5-2.9,9.9-3.2,5.5-1.3,7.7-6.6,16.1-2.5,4-2.3,8.1-5.6,12.8-3.8,5.5-4.1,10.3-6.5,14.6-1.4,2.9-2.3,4.8-6.1,10.6-2.5,4-6.1,7.7-11.5,10.6-3.9,2.2-7.6,5.5-12,6.9-8.7,3.3-6.6,2.2-11.4,3.6-.9.4-4.5,1.1-5.5,1.1-2.7,0-6.3.3-8,.3-4.4,0-9.2-4.8-10.2-9.2-1.7-7.7-.8-9.5-.6-11.7.2-2.9,1.4-5.2,4.6-10.8,0,0,0-.1,0-.1,5.8,7.3,16.3,8.8,23.8,3.2,7.7-5.7,9.4-16.5,3.7-24.2-1.2-1.7-2.7-3.1-4.4-4.2.9-.8,2-1.7,3.4-3,3.9-3.6,6.7-4.7,9.5-5.8.6-.4,4.2-.7,5.2-.7,3.7,0,5.3,1.1,9.4,3,1.1.4,1.9.7,2.9.8h3.4c2.4,0,4.6-.3,6.7-4.7,1.9-5.1,4.3-8,4.8-11.7.2-2.2-.1-3.7-.5-6.6-1.5-6.6-6.6-8.5-11.2-9.6l-1.4-.4c-3.4,0-8,2.2-12.5,4.7-4.6,2.2-8.1,2.9-12.6,6.9-2,1.8-8.2,5.8-12.1,9.5-3.7,3.3-13.1,10.9-16.2,15.3-3.1,4.4-8.7,8-13.5,13.9-4.8,5.8-8,9.5-11.3,12.8-3.3,3.3-8.4,11-8.8,17.9-.2,3.7-2.4,10.3-1.5,14.3l.3,1.5c1.5,6.6,8,14.8,13.9,15.5,1.4,0,9.3,2.3,10.6,2.3,4.4,0,11.8-1.8,14.5-1.7,4.4,0,7.8-2.9,11.9-4,4.2-1.1,6.6-3.6,9.9-5.4,3.9-2.2,12.6-5.8,13.9-5.8s1.4.4,1.6,1.1c.7,2.9-1.3,7.7-4.7,13.9-5.1,9.1-2.7,7.7-6.1,15-2.2,5.1-6,11-7.8,16.5-.3.8-.6,1.6-.8,2.4-2,5.2-4.6,10.5-7.1,15-2.6,4.8-5.3,9.7-7.4,15.3-1.5,5.2-6.2,12.5-9.3,18.5,0,0-7.1,10.9-10.3,20.5-2.3,6.8-9.1,13.8-10.3,18.5-2.4,7.1-4,8.6-6.4,12.3-.9,1.4-2,3.1-3.3,5.7-4.5,8.4-9.2,13.2-9.6,13.2-1,0-1.3-1.1-1.6-2.6-.8-3.7-.9-9.9-1.2-11.4l-.8-3.7c-.7-2.9-3.1-14-5.5-14-.7,0-1.4,0-1.6.4-5.7,3.3-1.6,12.5-4.1,27.1-1.7,9.2-3,10.6-6,20.1-2.1,5.9-5.9,16.1-8.6,20.5-3.4,5.9-4.4,12.1-10.3,20.5-6.2,8.8-8.1,10.6-11.4,15.7-3.3,5.1-4.1,10.6-3,15.4l1.1,4.8c.9,3.2,4.2,7.3,7.8,9.6.3.1.8-.1,1.5-.9,1.1-1.2,3.4-4.4,4.9-7.2,0,0,2.5-4.4,6.2-11.4.8-1.4,1.6-2.8,2.5-4.4,5-9.5,7.4-12.1,9.5-16.5,3.2-5.5,5.1-10.6,9.7-17.2,3.3-4.7,8.7-12.4,10.4-16.8,4.6-9.9,7.4-11,10.8-19.8,5.1-11.4,7.8-12.9,11.6-20.6.6-1.3,1.3-2.7,2-4.3,5.2-12,11-18.6,13.4-25,5.7-14.8,3.7-6.9,10-20.5,4.6-9.6,10.9-19,14-27,3.1-8,6.6-14.1,8.8-19.3.6-1.6,1.2-3.1,1.9-4.6,1.8-4.1,4-8.1,6.6-13.4,3.5-6.9,5.7-11,7.3-15.7,2.3-6.2,6.4-10.6,8.3-17.2,1.9-6.6,5.9-11.3,8.5-17.9,2.6-6.6,6.2-11.7,7.1-15.4,1.9-5.8,6.2-11.9,8-17.4.2-.4.4-.8.5-1.1,2.4-5.1,6.2-9.6,7.7-15.1,2.2-4.7,3.7-7.5,5.2-10.3,2.4-4.3,5.5-11.2,7.8-16.2.8-2,1.6-3.8,2.2-5.8,0,0,1-3.3,1.5-5.1-.3-1-.5-1.7-.5-1.7h0Z"/>
    <path class="st0" d="M225.6,125.5c0-9.4-7.1-22.9-16.9-22.9s-4.3,2-4.3,4.6,2,4.3,4.3,4.3,3.4-.9,4.3-2.6c3.4,2.9,6.9,8.6,6.9,17.7,0,26-26.9,55.8-68.6,62.3l-5.4.9c-2.6.3-5.4.6-8,.6-20,0-44.9-10.6-63.5-28.9l-2.9-2.9c-15.7-16.3-26.9-38.9-26.9-65.8s1.2-15.9,1.1-15.7C54.5,27.6,92.1,5.7,97.5,4c2.9-.6,4.3-1.7,4.3-2.9s-.9-1.1-2.3-1.1-1.1.3-1.7.3C39.2,15.2,0,70.3,0,127.8s4,36.9,12.6,54.3c23.2,47.5,68.3,63.5,115.8,63.5s17.2-.6,25.7-1.4c-1.4,3.1-1.7,8.3-1.7,11.7.6,11.7,5.4,15.4,8.9,15.4s4.3-1.1,4.3-3.1-1.4-2.6-2.3-2.6-2,.9-2.9.9c-1.4,0-3.1-6.9-3.1-10.9,0-20.3,16.3-42.9,34.3-64.9,23.7-28.9,33.5-46.9,34-65.2h0Z"/>
  </g>
</svg>