<?xml version="1.0" encoding="UTF-8"?>
<svg id="Layer_1" xmlns="http://www.w3.org/2000/svg" version="1.1" viewBox="0 0 884.9 454.6">
  <!-- Generator: Adobe Illustrator 29.2.1, SVG Export Plug-In . SVG Version: 2.1.0 Build 116)  -->
  <defs>
    <style>
      .st0 {
        fill: #f4ca76;
      }
    </style>
  </defs>
  <rect class="st0" x="291.7" y="240.1" width="593.2" height="4.4"/>
  <path class="st0" d="M330.6,224.9c-.7.4-1.3.7-1.7,1-.5.3-.9.4-1.3.6-.7.3-1.5.6-2.5.8-1,.3-2,.5-3,.7-1,.2-2.1.4-3.2.5s-2.1.2-3,.2c-3.5,0-6.8-.7-9.7-2.1-3-1.4-5.6-3.3-7.7-5.7-2.1-2.4-3.8-5.3-5-8.7-1.2-3.3-1.8-7-1.8-11s.6-7.7,1.9-11c1.3-3.3,3.1-6.1,5.4-8.5,2.3-2.4,5.1-4.2,8.3-5.5,3.2-1.3,6.8-1.9,10.7-1.9s2,0,2.9.1c.8,0,1.7.2,2.5.3.8.1,1.7.4,2.5.7.9.3,1.9.7,3.1,1.2l.3,6.8-.6.2c-1.6-2-3.4-3.4-5.3-4.3-1.9-.9-4-1.3-6.3-1.3-4.4,0-7.6,1.9-9.7,5.7-2.1,3.8-3.1,9.8-3.1,17.9s1.2,13.9,3.6,17.6c2.4,3.8,6.1,5.7,11.1,5.7s1.5,0,2.2-.1c.7,0,1.5-.2,2.2-.4.8-.2,1.6-.5,2.5-.9.9-.4,1.9-.8,3.1-1.4l1.6,2.9h0Z"/>
  <path class="st0" d="M337.3,179.4l9.3-4.5h.9v22.9c1.3-1.2,2.5-2.1,3.5-2.9s2.1-1.4,3-1.9c.9-.5,1.8-.8,2.7-1s1.8-.3,2.7-.3,2.4.2,3.5.7,2.1,1.1,3,1.9,1.5,1.7,2,2.7.8,2,.8,3.1v27.5h-9.9v-25.7c0-.3-.1-.8-.5-1.4-.7-1.1-1.3-1.9-1.7-2.2s-1.1-.6-2-.6-2.2.2-3.2.7c-2.7,1.1-4.1,2.6-4.1,4.5v24.6h-10v-48.1h0Z"/>
  <path class="st0" d="M378.3,194.4c1.3-.5,2.4-.9,3.4-1.3,1-.3,1.9-.6,2.7-.8s1.7-.3,2.6-.4,1.9-.1,3.1-.1c6,0,10.2,1.3,12.6,3.8.9.8,1.5,1.9,1.8,3.1.3,1.2.5,2.9.5,5.2v15.6c0,1.4.1,2.8.4,4.1s.6,2.6,1.2,3.9h-10.1l-1.1-2.9c-1.1,1-2.5,1.9-4.2,2.6s-3.5,1.1-5.6,1.1-3.1-.3-4.5-.9-2.5-1.4-3.6-2.5c-1-1.1-1.8-2.3-2.4-3.7-.6-1.4-.9-3-.9-4.7s.3-3.3,1-4.7c.6-1.4,1.5-2.6,2.7-3.6,1.1-1,2.5-1.8,4.1-2.4,1.6-.6,3.4-.8,5.3-.8s3.4.3,4.5.9c1.1.6,2.1,1.2,2.8,1.8v-6.6c0-2.2-.5-3.7-1.4-4.6-1-.8-2.5-1.3-4.7-1.3s-1.7,0-2.4.3c-.7.2-1.4.5-2.1.9-.7.4-1.5,1-2.3,1.7-.9.7-1.9,1.7-3,2.9h-.9c0,.1.5-6.6.5-6.6h0ZM394.7,210.9c-.6-.6-1.4-1.1-2.3-1.5s-1.8-.6-2.7-.6c-1.5,0-2.8.7-3.7,2-.9,1.3-1.4,3.1-1.4,5.5s.5,4.1,1.5,5.4c1,1.3,2.3,2,4,2s1.6-.2,2.2-.6c.7-.4,1.4-1.1,2.4-2.3v-10h0Z"/>
  <path class="st0" d="M413.2,195.7l9.5-4.4h.5v5.9c1.1-1.1,2.1-2,3.1-2.7,1-.7,2-1.3,2.9-1.8,1-.5,2-.8,3-1,1-.2,2.1-.3,3.2-.3s2.6.2,3.8.6c1.2.4,2.3,1,3.2,1.8.9.8,1.6,1.7,2.1,2.8.5,1.1.8,2.4.8,3.7v27.2h-10.5v-25.1c0-.7,0-1.4-.2-2.1s-.4-1.3-.8-1.8c-.4-.5-.8-.9-1.3-1.3s-1.2-.5-2-.5-1.6.1-2.3.4c-.7.3-1.4.7-2,1.2s-1.2,1-1.7,1.6-.9,1.1-1.3,1.6v26h-10v-31.8h0Z"/>
  <path class="st0" d="M475.4,224l-1.4,1.1c-.8.6-1.5,1.2-2.1,1.6s-1.2.7-1.8,1c-.6.2-1.2.4-1.8.5s-1.4.2-2.3.2c-2.2,0-4.1-.4-6-1.4-1.8-.9-3.4-2.2-4.7-3.8s-2.4-3.6-3.1-5.9c-.7-2.3-1.1-4.8-1.1-7.5s.4-4.9,1.1-7.1,1.8-4.1,3.1-5.7c1.3-1.6,2.9-2.9,4.7-3.8s3.8-1.4,5.9-1.4,3.6.4,4.9,1c1.3.7,2.6,1.9,3.8,3.7v-17.1l9.7-4.5h.6v52.4h-9.7v-3.4h0ZM474.4,201.8c0-.7-.2-1.4-.6-2.2s-1-1.4-1.7-2c-1.1-.8-2.1-1.2-3.2-1.2-2.1,0-3.6,1.1-4.5,3.4-.9,2.3-1.4,5.9-1.4,11,0,8.5,1.9,12.8,5.7,12.8s2.3-.3,3.1-.9c.9-.6,1.7-1.7,2.6-3.5v-17.5h0Z"/>
  <path class="st0" d="M493.6,179.9l9.9-4.9h1v52.6h-11v-47.6h0Z"/>
  <path class="st0" d="M523.5,215.6c.2,3,1,5.4,2.5,7s3.4,2.4,5.8,2.4,4.4-.6,6-1.7c1.7-1.1,3.2-3,4.5-5.6h.8c0,0-.4,7.2-.4,7.2-1.6,1.2-3.5,2-5.6,2.6-2.1.5-4.6.8-7.6.8s-5.1-.5-7.4-1.4-4.1-2.3-5.7-4c-1.6-1.7-2.8-3.8-3.7-6.2-.9-2.4-1.3-5-1.3-8s.4-4.6,1.3-6.7,2.1-3.9,3.6-5.4c1.5-1.5,3.3-2.7,5.3-3.6,2-.9,4.2-1.3,6.6-1.3,4.3,0,7.7,1,10,3.1,2.3,2.1,3.9,5.3,4.6,9.8l-19.5,11h0ZM533.1,205.4c0-3.9-.3-6.6-1-8.1-.7-1.6-1.9-2.3-3.7-2.3s-3.1.9-4.1,2.6-1.4,4.2-1.4,7.6,0,1.4,0,2.4,0,2.1,0,3.4l10.1-5.5h0Z"/>
  <path class="st0" d="M550.3,196.2l9.2-4.4h.8v7.3c.5-.6,1-1.1,1.4-1.5.4-.4.7-.8.9-1.1.9-.9,1.7-1.7,2.3-2.4.6-.6,1.2-1.1,1.8-1.4.5-.3,1.1-.6,1.6-.7.5-.1,1.2-.2,1.8-.2h.7c.2,0,.4,0,.7,0v10.9c-1.8-2.1-3.7-3.1-5.7-3.1s-1.7.3-2.5.8c-.4.3-.9.7-1.7,1.2s-1.2.9-1.3,1.4v24.4h-9.9v-31.3h0Z"/>
  <path class="st0" d="M627.2,184.6h-.7c-.8-1.2-1.6-2.2-2.4-3s-1.6-1.5-2.5-2-1.8-.9-2.9-1.1c-1-.2-2.2-.3-3.5-.3-8.7,0-13,8.4-13,25.1s1,12.4,3.1,16.1c2.1,3.7,5.1,5.5,9,5.5s1.2,0,1.8,0,1.3-.1,2.1-.2v-20.2h-4.3c-.4,0-.6-.1-.6-.4l.3-3c0-.3.2-.4.5-.4h14.7v19.9l1.4,1.9c-2,1.7-3.8,3-5.1,3.7-1.3.7-3,1.4-4.9,1.9-1.9.5-3.8.8-5.6.8-3.4,0-6.6-.7-9.5-2.1-2.9-1.4-5.5-3.3-7.6-5.8-2.2-2.4-3.9-5.3-5.1-8.6-1.2-3.3-1.8-6.9-1.8-10.7s.6-7.6,1.9-10.9c1.3-3.4,3-6.2,5.3-8.7,2.2-2.4,4.9-4.3,8-5.7s6.5-2.1,10.2-2.1,2.6.2,4.2.6c1.6.4,3.8,1,6.5,1.9l.5,7.9h0Z"/>
  <path class="st0" d="M651.6,228.3c-2.4,0-4.7-.4-6.7-1.3s-3.8-2.1-5.3-3.7c-1.5-1.6-2.6-3.5-3.5-5.7-.8-2.2-1.2-4.6-1.2-7.3s.4-5,1.3-7.2c.8-2.2,2-4.2,3.5-5.9,1.5-1.7,3.2-3,5.2-3.9s4.1-1.4,6.4-1.4,4.4.5,6.4,1.4,3.7,2.3,5.2,3.9c1.5,1.7,2.6,3.6,3.4,5.9.8,2.3,1.2,4.7,1.2,7.4s-.4,5-1.2,7.2c-.8,2.2-1.9,4.1-3.3,5.7-1.4,1.6-3.1,2.9-5,3.7-1.9.9-4,1.3-6.3,1.3h0ZM645.9,210.1c0,2.9,0,5.4.3,7.3.2,1.9.5,3.5.8,4.6.4,1.1.9,1.9,1.6,2.4s1.5.7,2.6.7,1.6-.3,2.2-.8,1.2-1.4,1.7-2.7.8-2.9,1-5,.4-4.7.4-7.8-.1-4.6-.4-6.3c-.3-1.7-.7-3.1-1.1-4.2-.5-1.1-1-1.9-1.6-2.4-.6-.5-1.2-.8-1.9-.8-1.4,0-2.5.6-3.2,1.7s-1.3,2.5-1.6,4.1c-.3,1.6-.6,3.3-.6,5s0,3.1,0,4.2h0Z"/>
  <path class="st0" d="M682.2,192.1h.9v26.2c0,1.3.4,2.3,1.3,3.1.9.8,2,1.2,3.3,1.2s1.8-.2,2.6-.5c.8-.4,1.6-.8,2.2-1.4s1.2-1.3,1.5-2c.4-.8.5-1.6.5-2.4v-20.3l8.9-3.9h1v35.3h-10.1v-4.8l-3.2,2.6c-2.7,2-5.8,3.1-9.2,3.1s-2.3-.2-3.3-.6c-1-.4-2-.9-2.8-1.6s-1.4-1.4-1.9-2.3c-.5-.9-.7-1.8-.7-2.8v-24.9l8.9-4h0Z"/>
  <path class="st0" d="M735.7,224l-1.4,1.1c-.8.6-1.5,1.2-2.1,1.6-.6.4-1.2.7-1.8,1-.6.2-1.2.4-1.8.5s-1.4.2-2.3.2c-2.2,0-4.2-.4-6-1.4-1.8-.9-3.4-2.2-4.7-3.8-1.3-1.6-2.4-3.6-3.1-5.9-.7-2.3-1.1-4.8-1.1-7.5s.4-4.9,1.1-7.1,1.8-4.1,3.1-5.7c1.3-1.6,2.9-2.9,4.7-3.8s3.8-1.4,5.9-1.4,3.6.4,4.9,1c1.3.7,2.6,1.9,3.8,3.7v-17.1l9.7-4.5h.7v52.4h-9.7v-3.4h0ZM734.6,201.8c0-.7-.2-1.4-.6-2.2s-1-1.4-1.7-2c-1.1-.8-2.2-1.2-3.2-1.2-2.1,0-3.6,1.1-4.5,3.4-.9,2.3-1.4,5.9-1.4,11,0,8.5,1.9,12.8,5.7,12.8s2.3-.3,3.2-.9c.8-.6,1.7-1.7,2.6-3.5v-17.5h0Z"/>
  <path class="st0" d="M754.5,196.2l9.2-4.4h.8v7.3c.5-.6,1-1.1,1.4-1.5.4-.4.7-.8.9-1.1.9-.9,1.7-1.7,2.3-2.4.6-.6,1.2-1.1,1.8-1.4.5-.3,1.1-.6,1.6-.7.5-.1,1.2-.2,1.8-.2h.7c.2,0,.4,0,.7,0v10.9c-1.8-2.1-3.7-3.1-5.7-3.1s-1.7.3-2.5.8c-.4.3-.9.7-1.7,1.2-.7.5-1.2.9-1.3,1.4v24.4h-9.9v-31.3h0Z"/>
  <path class="st0" d="M791.7,215.6c.2,3,1,5.4,2.5,7s3.4,2.4,5.8,2.4,4.3-.6,6-1.7,3.2-3,4.5-5.6h.8c0,0-.4,7.2-.4,7.2-1.7,1.2-3.5,2-5.6,2.6-2.1.5-4.6.8-7.6.8s-5.1-.5-7.4-1.4-4.1-2.3-5.7-4c-1.6-1.7-2.8-3.8-3.7-6.2s-1.3-5-1.3-8,.4-4.6,1.3-6.7,2.1-3.9,3.6-5.4c1.5-1.5,3.3-2.7,5.3-3.6,2-.9,4.2-1.3,6.6-1.3,4.3,0,7.7,1,10,3.1,2.3,2.1,3.9,5.3,4.6,9.8l-19.5,11h0ZM801.4,205.4c0-3.9-.3-6.6-1-8.1s-1.9-2.3-3.7-2.3-3.1.9-4.1,2.6-1.4,4.2-1.4,7.6,0,1.4,0,2.4,0,2.1,0,3.4l10.1-5.5h0Z"/>
  <path class="st0" d="M818.8,194.4c1.3-.5,2.4-.9,3.4-1.3,1-.3,1.9-.6,2.7-.8s1.7-.3,2.6-.4,1.9-.1,3.1-.1c6,0,10.2,1.3,12.6,3.8.9.8,1.5,1.9,1.8,3.1.3,1.2.5,2.9.5,5.2v15.6c0,1.4.1,2.8.4,4.1.2,1.3.6,2.6,1.2,3.9h-10.1l-1.1-2.9c-1.1,1-2.5,1.9-4.2,2.6-1.7.7-3.5,1.1-5.6,1.1s-3.1-.3-4.5-.9-2.6-1.4-3.6-2.5c-1-1.1-1.8-2.3-2.4-3.7-.6-1.4-.8-3-.8-4.7s.3-3.3,1-4.7c.7-1.4,1.5-2.6,2.7-3.6s2.5-1.8,4.1-2.4,3.4-.8,5.3-.8,3.4.3,4.5.9,2.1,1.2,2.8,1.8v-6.6c0-2.2-.5-3.7-1.4-4.6-1-.8-2.5-1.3-4.7-1.3s-1.7,0-2.4.3c-.7.2-1.4.5-2.1.9-.7.4-1.5,1-2.3,1.7-.8.7-1.8,1.7-3,2.9h-.9c0,.1.5-6.6.5-6.6h0ZM835.2,210.9c-.6-.6-1.4-1.1-2.3-1.5s-1.8-.6-2.7-.6c-1.5,0-2.8.7-3.7,2s-1.4,3.1-1.4,5.5.5,4.1,1.5,5.4c1,1.3,2.3,2,4,2s1.6-.2,2.2-.6c.7-.4,1.4-1.1,2.4-2.3v-10h0Z"/>
  <path class="st0" d="M862.5,192.1h.9v26.2c0,1.3.4,2.3,1.3,3.1.9.8,2,1.2,3.3,1.2s1.8-.2,2.6-.5,1.6-.8,2.2-1.4c.7-.6,1.2-1.3,1.5-2,.4-.8.6-1.6.6-2.4v-20.3l8.9-3.9h1v35.3h-10.1v-4.8l-3.2,2.6c-2.7,2-5.8,3.1-9.2,3.1s-2.3-.2-3.3-.6c-1-.4-2-.9-2.8-1.6s-1.4-1.4-1.9-2.3c-.5-.9-.7-1.8-.7-2.8v-24.9l8.9-4h0Z"/>
  <path class="st0" d="M310.2,287.4l-9.7-25.1-1.8,21.9,4.9.8c-.1,1.1-1.1,1.9-2.1,1.9-2.1,0-3.2-.1-5.3-.1s-3.1,0-4.5.1c-.3-.8,0-1.7,1.1-2.1l2.3-.7,2.9-26.2-3.9-.9c-.2-1.1.5-2.1,2.8-2.1h5.6l9.6,25.2,9.3-25.2h8.4c.4,1.6-.6,2.2-4.2,2.8l2.7,26.5,4.2.7c-.1,1.1-1.1,1.9-2.1,1.9-2.1,0-3.4-.1-5.5-.1s-3,0-5.1.1c0-.1-.1-.3-.1-.5,0-.7.5-1.1,1.4-1.4l2.8-.7-2.5-22-7.5,21.1c-.7,2.1-2,3.6-3.9,4.1h0Z"/>
  <path class="st0" d="M334.9,275.8c0-8.1,5.1-14,13.3-14s12.2,3.8,12.2,11.8-5.1,14-13.3,14-12.2-3.8-12.2-11.8h0ZM355.5,274.4c0-6.4-3.5-9.8-8-9.8s-7.9,3.9-7.9,10.3,3.5,9.7,8,9.7,7.8-3.8,7.8-10.3h0Z"/>
  <path class="st0" d="M381,286.9c-2.1,0-3.9-.1-6-.1s-3.5,0-5.6.1c0-.1-.1-.3-.1-.5,0-.7.5-1.1,1.4-1.4l3.1-.8v-19.1h-5.9l-1.1,3.5c-.6,1.8-1.5,2.2-2.7,1.7l.9-7.9h22.4l.6,5.4c.1,1.3-.7,2.6-2.4,2.4l-1.1-5.1h-6.1v19.1l4.8.8c-.1,1.1-1.1,1.9-2.1,1.9h0Z"/>
  <path class="st0" d="M403.7,286.9c-2.1,0-3.9-.1-6-.1s-3.5,0-5.6.1c0-.1-.1-.3-.1-.5,0-.7.5-1.1,1.4-1.4l3.1-.8v-19.2l-4-.4c-.2-1.1.5-2.1,2.8-2.1h9.9c.3,1.3-.5,2.1-2,2.3l-2.2.2v19.2l4.8.8c-.1,1.1-1.1,1.9-2.1,1.9h0Z"/>
  <path class="st0" d="M410.8,275.8c0-8.1,5.1-14,13.3-14s12.2,3.8,12.2,11.8-5.1,14-13.3,14-12.2-3.8-12.2-11.8h0ZM431.4,274.4c0-6.4-3.5-9.8-8-9.8s-7.9,3.9-7.9,10.3,3.5,9.7,8,9.7,7.8-3.8,7.8-10.3h0Z"/>
  <path class="st0" d="M467.1,287c-.4.1-1,.3-1.5.3-1.3,0-2.3-.6-3.4-2l-13.4-16.7v15.6l4.8.8c-.1,1.1-1.1,1.9-2.1,1.9-2.1,0-2.8-.1-4.9-.1s-3.5,0-5.6.1c0-.1-.1-.3-.1-.5,0-.7.5-1.1,1.4-1.4l3.1-.8v-19.2l-4-.4c-.2-1.1.5-2.1,2.8-2.1h5.4l14,17.9v-15.4l-3.9-.4c-.2-1.1.5-2.1,2.8-2.1h8c.3,1.3-.5,2.1-2,2.3l-1.6.2v22.1h0Z"/>
  <path class="st0" d="M490.5,286.8c-2.5,0-4.6,0-6.6.1,0-.1-.1-.3-.1-.5,0-.7.5-1.2,1.4-1.5l2.9-.9v-26.3l-4.1-.5c0-.1,0-.3,0-.4,0-1.2,1.3-2.2,10.9-2.2,13.7,0,19.6,5.7,19.6,15.8s-5.1,16.6-16.3,16.6-5-.2-7.6-.2h0ZM498.7,284.4c6.1,0,11-4,11-12.3s-5.3-14.8-17.2-14.8v26.5c1.7.4,3.4.6,6.2.6h0Z"/>
  <path class="st0" d="M527.8,276.2v7.9l8.9.3,1.2-3c.5-1.2,1.7-1.6,2.7-.9l-1.6,6.5h-20c0-.1,0-.3,0-.5,0-.7.5-1.1,1.4-1.4l3.1-.8v-19.2l-4-.4c-.2-1.1.5-2.1,2.8-2.1h15.9l.3,3.8c.2,1.6-.6,2.3-2.3,2.3l-.6-3.3-7.8-.2v8.5h5.4c0-1.4.2-3.1,1.8-3.1s.7,0,.9.2c-.2,2.8-.2,4.6-.2,6.7s-1.6,2.4-2.8,2l.2-3.1h-5.3Z"/>
  <path class="st0" d="M553.6,287.6c-5.3,0-8.2-1.9-8.2-4.8s1.4-3.4,3.6-3.1c0,3.3,2,5.2,5.5,5.2s4.2-1.2,4.2-3.7-1-3.5-5.2-5c-5.1-1.8-6.7-3.6-6.7-7.1s3.1-7.3,8.6-7.3,4.8.4,7.2,1.4l-.5,4.5c-.3,1.6-1.2,2.3-2.9,1.9v-4.4c-1.1-.5-2.5-.7-4-.7-2.3,0-4,1.2-4,3.3s.5,2.8,5.6,4.6c5.4,1.9,6.7,4.2,6.7,7.5s-3.5,7.8-9.8,7.8h0Z"/>
  <path class="st0" d="M580.2,286.9c-2.1,0-3.9-.1-6-.1s-3.5,0-5.6.1c0-.1,0-.3,0-.5,0-.7.5-1.1,1.4-1.4l3.1-.8v-19.2l-4-.4c-.2-1.1.5-2.1,2.8-2.1h9.9c.3,1.3-.5,2.1-2,2.3l-2.2.2v19.2l4.8.8c-.2,1.1-1.1,1.9-2.1,1.9h0Z"/>
  <path class="st0" d="M609.2,284.8c-2.5,1.7-6,2.8-10.3,2.8-7.8,0-11.6-5-11.6-12.1s5.5-13.7,13.5-13.7,6.8.6,8.5,1.4l-.9,5.1c-.3,1.7-1,2.4-2.1,2.4s-.6-.1-.9-.2l.3-4.9c-1.6-.6-3.5-1-5.3-1-5.3,0-8.4,3.5-8.4,10.2s3,9.7,9.1,9.7,2.8-.1,3.7-.4v-5.8l-4.5-.4c-.2-1.1.5-2.1,2.8-2.1h9.5c.3,1.3-.5,2.1-2,2.3h-1.3v6.8h0Z"/>
  <path class="st0" d="M643.1,287c-.3.1-1,.3-1.5.3-1.3,0-2.3-.6-3.4-2l-13.4-16.7v15.6l4.8.8c-.2,1.1-1.1,1.9-2.1,1.9-2.1,0-2.8-.1-4.9-.1s-3.5,0-5.6.1c0-.1,0-.3,0-.5,0-.7.5-1.1,1.4-1.4l3.1-.8v-19.2l-4-.4c-.2-1.1.5-2.1,2.8-2.1h5.4l14,17.9v-15.4l-3.9-.4c-.2-1.1.5-2.1,2.8-2.1h8c.3,1.3-.5,2.1-2,2.3l-1.6.2v22.1h0Z"/>
  <path class="st0" d="M660.2,276.2v7.9l8.9.3,1.2-3c.5-1.2,1.7-1.6,2.7-.9l-1.6,6.5h-20c0-.1,0-.3,0-.5,0-.7.5-1.1,1.4-1.4l3.1-.8v-19.2l-4-.4c-.2-1.1.5-2.1,2.8-2.1h15.9l.3,3.8c.2,1.6-.6,2.3-2.3,2.3l-.6-3.3-7.8-.2v8.5h5.4c0-1.4.2-3.1,1.8-3.1s.7,0,.9.2c-.2,2.8-.2,4.6-.2,6.7s-1.6,2.4-2.8,2l.2-3.1h-5.3Z"/>
  <path class="st0" d="M691.2,285c-.2,1.1-1.1,1.9-2.1,1.9-2.1,0-3.4-.1-5.5-.1s-3.5,0-5.6.1c0-.1,0-.3,0-.5,0-.7.5-1.1,1.4-1.4l3.1-.8v-19.2l-4-.4c0-.1,0-.2,0-.3,0-1.3.9-2.1,8.2-2.1s12.9,2.8,12.9,7-2.2,6.1-5.3,7c2.1,2.8,7,8,10.5,9.8-.5.9-1.9,1.8-3.5,1.8s-3.8-.7-5.9-3.4c-1.3-1.6-3.1-5-4.1-7.1h-4.3v7l4.3.8h0ZM686.9,264.5v10.5c5.4.5,8-1.5,8-5.3s-1.9-5.2-8-5.2Z"/>
  <path class="st0" d="M235.8,34c-1.4-6.3-4.2-11.8-9.8-12.6-3.5,0-5.5,2.9-8.4,9.2-1.6,3.3-3.6,8-5.4,13.8,0,0-.9,6.3-3.3,11.3-3.6,6.3-1.5,8.8-7.5,18.4-2.8,4.6-2.6,9.2-6.4,14.7-4.4,6.3-4.7,11.7-7.5,16.8-1.6,3.3-2.6,5.4-7,12.1-2.8,4.6-6.9,8.8-13.1,12.1-4.5,2.5-8.7,6.2-13.7,7.9-10,3.7-7.6,2.5-13,4.1-1.1.4-5.1,1.2-6.3,1.2-3.1,0-7.3.4-9.2.4-5,0-10.5-5.5-11.6-10.6-2-8.8-.9-10.9-.7-13.4.3-3.3,1.6-5.9,5.2-12.4,0,0,0-.1,0-.1,6.6,8.3,18.6,10,27.3,3.7,8.8-6.5,10.7-18.9,4.3-27.7-1.4-1.9-3.1-3.5-5-4.8,1.1-.9,2.3-1.9,3.9-3.4,4.5-4.2,7.7-5.4,10.9-6.7.7-.4,4.8-.8,6-.8,4.3,0,6.1,1.3,10.8,3.4,1.2.4,2.1.8,3.3.9h3.9c2.7,0,5.3-.4,7.7-5.4,2.2-5.9,4.9-9.2,5.5-13.4.2-2.5-.2-4.2-.5-7.6-1.7-7.6-7.6-9.7-12.9-11l-1.6-.4c-3.9,0-9.1,2.5-14.3,5.4-5.2,2.5-9.3,3.3-14.5,7.9-2.2,2.1-9.3,6.7-13.8,10.8-4.2,3.8-15,12.5-18.5,17.5-3.5,5-9.9,9.2-15.4,15.9-5.5,6.7-9.2,10.9-13,14.6-3.8,3.8-9.6,12.5-10.1,20.5-.2,4.2-2.8,11.7-1.8,16.4l.4,1.7c1.7,7.6,9.1,16.9,15.9,17.7,1.6,0,10.6,2.6,12.2,2.6,5,0,13.5-2,16.6-2,5,0,8.9-3.3,13.7-4.5,4.8-1.2,7.6-4.1,11.4-6.2,4.5-2.5,14.4-6.6,15.9-6.6s1.6.4,1.8,1.3c.8,3.4-1.5,8.8-5.3,15.9-5.8,10.5-3.1,8.8-7,17.2-2.6,5.9-6.9,12.6-8.9,18.8-.3.9-.6,1.8-1,2.8-2.3,5.9-5.2,12.1-8.1,17.2-3,5.5-6,11.1-8.5,17.5-1.7,5.9-7.1,14.3-10.6,21.2,0,0-8.2,12.5-11.8,23.5-2.6,7.8-10.4,15.8-11.8,21.2-2.8,8.1-4.5,9.8-7.3,14-1.1,1.6-2.3,3.5-3.8,6.5-5.2,9.6-10.6,15-10.9,15-1.2,0-1.4-1.3-1.8-3-.9-4.2-1-11.3-1.3-13l-.9-4.2c-.8-3.4-3.6-16-6.3-16-.8,0-1.5,0-1.8.4-6.5,3.7-1.8,14.3-4.7,31-1.9,10.5-3.5,12.2-6.8,23-2.4,6.7-6.7,18.4-9.9,23.5-3.9,6.7-5,13.8-11.8,23.4-7,10-9.3,12.1-13,18-3.7,5.9-4.6,12.1-3.4,17.6l1.2,5.5c1.1,3.7,4.8,8.3,8.9,11,.4.1,1-.2,1.7-1,1.2-1.4,3.9-5,5.6-8.2,0,0,2.9-5.1,7.1-13.1.9-1.6,1.9-3.2,2.8-5.1,5.7-10.9,8.5-13.8,10.9-18.8,3.6-6.3,5.8-12.1,11.1-19.7,3.8-5.4,10-14.2,11.9-19.2,5.2-11.3,8.4-12.5,12.4-22.6,5.8-13.1,8.9-14.8,13.3-23.5.7-1.5,1.5-3.1,2.3-5,5.9-13.8,12.6-21.3,15.3-28.6,6.6-16.9,4.2-7.8,11.4-23.5,5.2-11,12.5-21.7,16.1-30.9,3.6-9.1,7.5-16.1,10.1-22,.7-1.8,1.4-3.6,2.1-5.3,2.1-4.7,4.5-9.3,7.5-15.3,4-7.9,6.5-12.6,8.4-18,2.7-7.1,7.4-12.1,9.5-19.7,2.2-7.5,6.8-13,9.7-20.5,3-7.5,7.1-13.4,8.1-17.6,2.2-6.6,7.1-13.7,9.1-19.9.2-.4.4-.9.6-1.3,2.7-5.9,7-11,8.8-17.3,2.5-5.3,4.2-8.6,5.9-11.8,2.8-4.9,6.3-12.8,8.9-18.5,1-2.3,1.8-4.4,2.6-6.6,0,0,1.1-3.8,1.8-5.8-.3-1.1-.6-1.9-.6-1.9h0Z"/>
  <path class="st0" d="M258.1,143.6c0-10.8-8.2-26.2-19.3-26.2s-4.9,2.3-4.9,5.2,2.3,4.9,4.9,4.9,3.9-1,4.9-2.9c3.9,3.3,7.9,9.8,7.9,20.3,0,29.8-30.8,63.8-78.5,71.3l-6.2,1c-2.9.3-6.2.6-9.2.6-22.9,0-51.4-12.1-72.6-33l-3.3-3.3c-18-18.6-30.8-44.5-30.8-75.2s1.3-18.1,1.3-18C62.4,31.6,105.3,6.5,111.6,4.6c3.3-.7,4.9-2,4.9-3.3s-1-1.3-2.6-1.3-1.3.3-2,.3C44.8,17.3,0,80.5,0,146.2s4.6,42.2,14.4,62.2c26.5,54.3,78.2,72.6,132.5,72.6s19.6-.6,29.4-1.6c-1.6,3.6-2,9.5-2,13.4.6,13.4,6.2,17.7,10.1,17.7s4.9-1.3,4.9-3.6-1.6-2.9-2.6-2.9-2.3,1-3.3,1c-1.6,0-3.6-7.9-3.6-12.4,0-23.2,18.6-49.1,39.3-74.3,27.2-33,38.3-53.6,38.9-74.6h0Z"/>
</svg>